G04 ================== begin FILE IDENTIFICATION RECORD ==================*
G04 Layout Name:  C:/Users/alex1/Desktop/Proiect1 Final/p1.brd*
G04 Film Name:    FAB*
G04 File Format:  Gerber RS274X*
G04 File Origin:  Cadence Allegro 17.2-S025*
G04 Origin Date:  Thu Dec 16 20:07:40 2021*
G04 *
G04 Layer:  MANUFACTURING/NCDRILL_LEGEND*
G04 Layer:  MANUFACTURING/NCDRILL_FIGURE*
G04 Layer:  MANUFACTURING/XSECTION_CHART*
G04 Layer:  MANUFACTURING/NCLEGEND-1-2*
G04 Layer:  DRAWING FORMAT/OUTLINE*
G04 *
G04 Offset:    (0.00 0.00)*
G04 Mirror:    No*
G04 Mode:      Positive*
G04 Rotation:  0*
G04 FullContactRelief:  No*
G04 UndefLineWidth:     10.00*
G04 ================== end FILE IDENTIFICATION RECORD ====================*
%FSLAX25Y25*MOIN*%
%IR0*IPPOS*OFA0.00000B0.00000*MIA0B0*SFA1.00000B1.00000*%
%AMMACRO10*
1,1,.01,0.0,.019685*
20,1,.01,0.0,.019685,.003418,.019386,0.0*
1,1,.01,.003418,.019386*
20,1,.01,.003418,.019386,.006733,.018498,0.0*
1,1,.01,.006733,.018498*
20,1,.01,.006733,.018498,.009842,.017048,0.0*
1,1,.01,.009842,.017048*
20,1,.01,.009842,.017048,.012653,.01508,0.0*
1,1,.01,.012653,.01508*
20,1,.01,.012653,.01508,.01508,.012653,0.0*
1,1,.01,.01508,.012653*
20,1,.01,.01508,.012653,.017048,.009843,0.0*
1,1,.01,.017048,.009843*
20,1,.01,.017048,.009843,.018498,.006733,0.0*
1,1,.01,.018498,.006733*
20,1,.01,.018498,.006733,.019386,.003418,0.0*
1,1,.01,.019386,.003418*
20,1,.01,.019386,.003418,.019685,0.0,0.0*
1,1,.01,.019685,0.0*
20,1,.01,.019685,0.0,.019386,-.003418,0.0*
1,1,.01,.019386,-.003418*
20,1,.01,.019386,-.003418,.018498,-.006733,0.0*
1,1,.01,.018498,-.006733*
20,1,.01,.018498,-.006733,.017048,-.009842,0.0*
1,1,.01,.017048,-.009842*
20,1,.01,.017048,-.009842,.01508,-.012653,0.0*
1,1,.01,.01508,-.012653*
20,1,.01,.01508,-.012653,.012653,-.01508,0.0*
1,1,.01,.012653,-.01508*
20,1,.01,.012653,-.01508,.009843,-.017048,0.0*
1,1,.01,.009843,-.017048*
20,1,.01,.009843,-.017048,.006733,-.018498,0.0*
1,1,.01,.006733,-.018498*
20,1,.01,.006733,-.018498,.003418,-.019386,0.0*
1,1,.01,.003418,-.019386*
20,1,.01,.003418,-.019386,0.0,-.019685,0.0*
1,1,.01,0.0,-.019685*
20,1,.01,0.0,-.019685,-.003418,-.019386,0.0*
1,1,.01,-.003418,-.019386*
20,1,.01,-.003418,-.019386,-.006733,-.018498,0.0*
1,1,.01,-.006733,-.018498*
20,1,.01,-.006733,-.018498,-.009842,-.017048,0.0*
1,1,.01,-.009842,-.017048*
20,1,.01,-.009842,-.017048,-.012653,-.01508,0.0*
1,1,.01,-.012653,-.01508*
20,1,.01,-.012653,-.01508,-.01508,-.012653,0.0*
1,1,.01,-.01508,-.012653*
20,1,.01,-.01508,-.012653,-.017048,-.009843,0.0*
1,1,.01,-.017048,-.009843*
20,1,.01,-.017048,-.009843,-.018498,-.006733,0.0*
1,1,.01,-.018498,-.006733*
20,1,.01,-.018498,-.006733,-.019386,-.003418,0.0*
1,1,.01,-.019386,-.003418*
20,1,.01,-.019386,-.003418,-.019685,0.0,0.0*
1,1,.01,-.019685,0.0*
20,1,.01,-.019685,0.0,-.019386,.003418,0.0*
1,1,.01,-.019386,.003418*
20,1,.01,-.019386,.003418,-.018498,.006733,0.0*
1,1,.01,-.018498,.006733*
20,1,.01,-.018498,.006733,-.017048,.009842,0.0*
1,1,.01,-.017048,.009842*
20,1,.01,-.017048,.009842,-.01508,.012653,0.0*
1,1,.01,-.01508,.012653*
20,1,.01,-.01508,.012653,-.012653,.01508,0.0*
1,1,.01,-.012653,.01508*
20,1,.01,-.012653,.01508,-.009843,.017048,0.0*
1,1,.01,-.009843,.017048*
20,1,.01,-.009843,.017048,-.006733,.018498,0.0*
1,1,.01,-.006733,.018498*
20,1,.01,-.006733,.018498,-.003418,.019386,0.0*
1,1,.01,-.003418,.019386*
20,1,.01,-.003418,.019386,0.0,.019685,0.0*
1,1,.01,0.0,.019685*
1,1,.01,.009842,0.0*
20,1,.01,.009842,0.0,-.009842,0.0,0.0*
1,1,.01,-.009842,0.0*
1,1,.01,0.0,.009842*
20,1,.01,0.0,.009842,0.0,-.009842,0.0*
1,1,.01,0.0,-.009842*
%
%ADD10MACRO10*%
%ADD11C,.0001*%
%ADD12C,.01*%
G75*
%LPD*%
G75*
G36*
G01X312500Y-3809D02*
Y-4528D01*
X315000D01*
Y-62159D01*
X312500D01*
Y-62878D01*
X327500D01*
Y-62159D01*
X325000D01*
Y-4528D01*
X327500D01*
Y-3809D01*
X312500D01*
G37*
G36*
G01X292500Y-62877D02*
Y-62158D01*
X352500D01*
Y-62877D01*
X292500D01*
G37*
G36*
G01Y-4528D02*
Y-3809D01*
X352500D01*
Y-4528D01*
X292500D01*
G37*
G54D10*
X257450Y47500D03*
G54D11*
G01X223505Y66250D02*
Y78750D01*
X229395D01*
G01X227225Y72708D02*
X223505D01*
G01X236990Y78750D02*
X240710D01*
G01X238850D02*
Y66250D01*
G01X236990D02*
X240710D01*
G01X252180Y72500D02*
X255280D01*
Y68750D01*
X254350Y67500D01*
X253265Y66667D01*
X251715Y66250D01*
X250165Y66667D01*
X249080Y67500D01*
X248150Y68750D01*
X247530Y70208D01*
X247220Y71875D01*
Y73333D01*
X247530Y74583D01*
X248150Y76042D01*
X249080Y77292D01*
X250010Y78125D01*
X251250Y78750D01*
X252335D01*
X253575Y78333D01*
X254505Y77500D01*
G01X260240Y78750D02*
Y69792D01*
X260860Y67916D01*
X262100Y66667D01*
X263650Y66250D01*
X265200Y66667D01*
X266440Y67916D01*
X267060Y69792D01*
Y78750D01*
G01X272950Y66250D02*
Y78750D01*
X276825D01*
X278065Y78125D01*
X278840Y77292D01*
X279150Y75625D01*
X278840Y73958D01*
X277910Y72917D01*
X276825Y72292D01*
X272950D01*
G01X276825D02*
X279150Y66250D01*
G01X291550D02*
X285350D01*
Y78750D01*
X291550D01*
G01X289070Y72708D02*
X285350D01*
G01X294413Y-74662D02*
Y-72162D01*
X294947D01*
X295160Y-72287D01*
X295320Y-72454D01*
X295453Y-72704D01*
X295560Y-72995D01*
X295587Y-73412D01*
X295560Y-73829D01*
X295453Y-74120D01*
X295320Y-74370D01*
X295160Y-74537D01*
X294947Y-74662D01*
X294413D01*
G01X297733D02*
X296667D01*
Y-72162D01*
X297733D01*
G01X297307Y-73370D02*
X296667D01*
G01X298840Y-74329D02*
X299053Y-74537D01*
X299293Y-74662D01*
X299507D01*
X299720Y-74537D01*
X299880Y-74329D01*
X299960Y-74037D01*
X299907Y-73745D01*
X299773Y-73495D01*
X299533Y-73329D01*
X299213Y-73245D01*
X299027Y-73079D01*
X298947Y-72787D01*
X299000Y-72495D01*
X299133Y-72287D01*
X299320Y-72162D01*
X299507D01*
X299693Y-72245D01*
X299853Y-72454D01*
G01X301280Y-72162D02*
X301920D01*
G01X301600D02*
Y-74662D01*
G01X301280D02*
X301920D01*
G01X303960Y-73412D02*
X304493D01*
Y-74162D01*
X304333Y-74412D01*
X304147Y-74579D01*
X303880Y-74662D01*
X303613Y-74579D01*
X303427Y-74412D01*
X303267Y-74162D01*
X303160Y-73870D01*
X303107Y-73537D01*
Y-73245D01*
X303160Y-72995D01*
X303267Y-72704D01*
X303427Y-72454D01*
X303587Y-72287D01*
X303800Y-72162D01*
X303987D01*
X304200Y-72245D01*
X304360Y-72412D01*
G01X305387Y-74662D02*
Y-72162D01*
X306613Y-74662D01*
Y-72162D01*
G01X310987Y-72370D02*
X310827Y-72245D01*
X310640Y-72162D01*
X310427D01*
X310187Y-72287D01*
X310000Y-72495D01*
X309867Y-72745D01*
X309760Y-73162D01*
X309733Y-73537D01*
X309787Y-73912D01*
X309867Y-74162D01*
X310027Y-74412D01*
X310213Y-74579D01*
X310400Y-74662D01*
X310587D01*
X310773Y-74579D01*
X310933Y-74454D01*
X311067Y-74287D01*
G01X312067Y-74662D02*
Y-72162D01*
X312733D01*
X312947Y-72287D01*
X313080Y-72454D01*
X313133Y-72787D01*
X313080Y-73120D01*
X312920Y-73329D01*
X312733Y-73454D01*
X312067D01*
G01X312733D02*
X313133Y-74662D01*
G01X314800D02*
X314587Y-74620D01*
X314400Y-74454D01*
X314240Y-74204D01*
X314133Y-73912D01*
X314080Y-73579D01*
Y-73245D01*
X314133Y-72912D01*
X314240Y-72620D01*
X314400Y-72370D01*
X314587Y-72204D01*
X314800Y-72162D01*
X315013Y-72204D01*
X315200Y-72370D01*
X315360Y-72620D01*
X315467Y-72912D01*
X315520Y-73245D01*
Y-73579D01*
X315467Y-73912D01*
X315360Y-74204D01*
X315200Y-74454D01*
X315013Y-74620D01*
X314800Y-74662D01*
G01X316440Y-74329D02*
X316653Y-74537D01*
X316893Y-74662D01*
X317107D01*
X317320Y-74537D01*
X317480Y-74329D01*
X317560Y-74037D01*
X317507Y-73745D01*
X317373Y-73495D01*
X317133Y-73329D01*
X316813Y-73245D01*
X316627Y-73079D01*
X316547Y-72787D01*
X316600Y-72495D01*
X316733Y-72287D01*
X316920Y-72162D01*
X317107D01*
X317293Y-72245D01*
X317453Y-72454D01*
G01X318640Y-74329D02*
X318853Y-74537D01*
X319093Y-74662D01*
X319307D01*
X319520Y-74537D01*
X319680Y-74329D01*
X319760Y-74037D01*
X319707Y-73745D01*
X319573Y-73495D01*
X319333Y-73329D01*
X319013Y-73245D01*
X318827Y-73079D01*
X318747Y-72787D01*
X318800Y-72495D01*
X318933Y-72287D01*
X319120Y-72162D01*
X319307D01*
X319493Y-72245D01*
X319653Y-72454D01*
G01X323040Y-74329D02*
X323253Y-74537D01*
X323493Y-74662D01*
X323707D01*
X323920Y-74537D01*
X324080Y-74329D01*
X324160Y-74037D01*
X324107Y-73745D01*
X323973Y-73495D01*
X323733Y-73329D01*
X323413Y-73245D01*
X323227Y-73079D01*
X323147Y-72787D01*
X323200Y-72495D01*
X323333Y-72287D01*
X323520Y-72162D01*
X323707D01*
X323893Y-72245D01*
X324053Y-72454D01*
G01X326333Y-74662D02*
X325267D01*
Y-72162D01*
X326333D01*
G01X325907Y-73370D02*
X325267D01*
G01X328587Y-72370D02*
X328427Y-72245D01*
X328240Y-72162D01*
X328027D01*
X327787Y-72287D01*
X327600Y-72495D01*
X327467Y-72745D01*
X327360Y-73162D01*
X327333Y-73537D01*
X327387Y-73912D01*
X327467Y-74162D01*
X327627Y-74412D01*
X327813Y-74579D01*
X328000Y-74662D01*
X328187D01*
X328373Y-74579D01*
X328533Y-74454D01*
X328667Y-74287D01*
G01X330200Y-72162D02*
Y-74662D01*
G01X329587Y-72162D02*
X330813D01*
G01X332080D02*
X332720D01*
G01X332400D02*
Y-74662D01*
G01X332080D02*
X332720D01*
G01X334600D02*
X334387Y-74620D01*
X334200Y-74454D01*
X334040Y-74204D01*
X333933Y-73912D01*
X333880Y-73579D01*
Y-73245D01*
X333933Y-72912D01*
X334040Y-72620D01*
X334200Y-72370D01*
X334387Y-72204D01*
X334600Y-72162D01*
X334813Y-72204D01*
X335000Y-72370D01*
X335160Y-72620D01*
X335267Y-72912D01*
X335320Y-73245D01*
Y-73579D01*
X335267Y-73912D01*
X335160Y-74204D01*
X335000Y-74454D01*
X334813Y-74620D01*
X334600Y-74662D01*
G01X336187D02*
Y-72162D01*
X337413Y-74662D01*
Y-72162D01*
G01X341787Y-72370D02*
X341627Y-72245D01*
X341440Y-72162D01*
X341227D01*
X340987Y-72287D01*
X340800Y-72495D01*
X340667Y-72745D01*
X340560Y-73162D01*
X340533Y-73537D01*
X340587Y-73912D01*
X340667Y-74162D01*
X340827Y-74412D01*
X341013Y-74579D01*
X341200Y-74662D01*
X341387D01*
X341573Y-74579D01*
X341733Y-74454D01*
X341867Y-74287D01*
G01X342840Y-74662D02*
Y-72162D01*
G01X343960D02*
Y-74662D01*
G01Y-73412D02*
X342840D01*
G01X344933Y-74662D02*
X345600Y-72162D01*
X346267Y-74662D01*
G01X346027Y-73787D02*
X345173D01*
G01X347267Y-74662D02*
Y-72162D01*
X347933D01*
X348147Y-72287D01*
X348280Y-72454D01*
X348333Y-72787D01*
X348280Y-73120D01*
X348120Y-73329D01*
X347933Y-73454D01*
X347267D01*
G01X347933D02*
X348333Y-74662D01*
G01X350000Y-72162D02*
Y-74662D01*
G01X349387Y-72162D02*
X350613D01*
G01X293100Y-75495D02*
X294700D01*
G01X295300D02*
X296900D01*
G01X297500D02*
X299100D01*
G01X299700D02*
X301300D01*
G01X301900D02*
X303500D01*
G01X304100D02*
X305700D01*
G01X306300D02*
X307900D01*
G01X308500D02*
X310100D01*
G01X310700D02*
X312300D01*
G01X312900D02*
X314500D01*
G01X315100D02*
X316700D01*
G01X317300D02*
X318900D01*
G01X319500D02*
X321100D01*
G01X321700D02*
X323300D01*
G01X323900D02*
X325500D01*
G01X326100D02*
X327700D01*
G01X328300D02*
X329900D01*
G01X330500D02*
X332100D01*
G01X332700D02*
X334300D01*
G01X334900D02*
X336500D01*
G01X337100D02*
X338700D01*
G01X339300D02*
X340900D01*
G01X341500D02*
X343100D01*
G01X343700D02*
X345300D01*
G01X345900D02*
X347500D01*
G01X348100D02*
X349700D01*
G01X350300D02*
X351900D01*
G01X296100Y-76662D02*
Y-79162D01*
G01X295487Y-76662D02*
X296713D01*
G01X298300Y-79162D02*
X298087Y-79120D01*
X297900Y-78954D01*
X297740Y-78704D01*
X297633Y-78412D01*
X297580Y-78079D01*
Y-77745D01*
X297633Y-77412D01*
X297740Y-77120D01*
X297900Y-76870D01*
X298087Y-76704D01*
X298300Y-76662D01*
X298513Y-76704D01*
X298700Y-76870D01*
X298860Y-77120D01*
X298967Y-77412D01*
X299020Y-77745D01*
Y-78079D01*
X298967Y-78412D01*
X298860Y-78704D01*
X298700Y-78954D01*
X298513Y-79120D01*
X298300Y-79162D01*
G01X300500Y-76662D02*
Y-79162D01*
G01X299887Y-76662D02*
X301113D01*
G01X302033Y-79162D02*
X302700Y-76662D01*
X303367Y-79162D01*
G01X303127Y-78287D02*
X302273D01*
G01X304367Y-76662D02*
Y-79162D01*
X305433D01*
G01X309300Y-76662D02*
Y-79162D01*
G01X308687Y-76662D02*
X309913D01*
G01X310940Y-79162D02*
Y-76662D01*
G01X312060D02*
Y-79162D01*
G01Y-77912D02*
X310940D01*
G01X313380Y-76662D02*
X314020D01*
G01X313700D02*
Y-79162D01*
G01X313380D02*
X314020D01*
G01X316487Y-76870D02*
X316327Y-76745D01*
X316140Y-76662D01*
X315927D01*
X315687Y-76787D01*
X315500Y-76995D01*
X315367Y-77245D01*
X315260Y-77662D01*
X315233Y-78037D01*
X315287Y-78412D01*
X315367Y-78662D01*
X315527Y-78912D01*
X315713Y-79079D01*
X315900Y-79162D01*
X316087D01*
X316273Y-79079D01*
X316433Y-78954D01*
X316567Y-78787D01*
G01X317513Y-79162D02*
Y-76662D01*
G01X318527D02*
X317513Y-78204D01*
G01X318687Y-79162D02*
X317967Y-77495D01*
G01X319687Y-79162D02*
Y-76662D01*
X320913Y-79162D01*
Y-76662D01*
G01X323033Y-79162D02*
X321967D01*
Y-76662D01*
X323033D01*
G01X322607Y-77870D02*
X321967D01*
G01X324140Y-78829D02*
X324353Y-79037D01*
X324593Y-79162D01*
X324807D01*
X325020Y-79037D01*
X325180Y-78829D01*
X325260Y-78537D01*
X325207Y-78245D01*
X325073Y-77995D01*
X324833Y-77829D01*
X324513Y-77745D01*
X324327Y-77579D01*
X324247Y-77287D01*
X324300Y-76995D01*
X324433Y-76787D01*
X324620Y-76662D01*
X324807D01*
X324993Y-76745D01*
X325153Y-76954D01*
G01X326340Y-78829D02*
X326553Y-79037D01*
X326793Y-79162D01*
X327007D01*
X327220Y-79037D01*
X327380Y-78829D01*
X327460Y-78537D01*
X327407Y-78245D01*
X327273Y-77995D01*
X327033Y-77829D01*
X326713Y-77745D01*
X326527Y-77579D01*
X326447Y-77287D01*
X326500Y-76995D01*
X326633Y-76787D01*
X326820Y-76662D01*
X327007D01*
X327193Y-76745D01*
X327353Y-76954D01*
G01X330713Y-78787D02*
X330873Y-78995D01*
X331060Y-79120D01*
X331300Y-79162D01*
X331540Y-79079D01*
X331727Y-78912D01*
X331860Y-78620D01*
X331887Y-78287D01*
X331833Y-77954D01*
X331700Y-77745D01*
X331513Y-77579D01*
X331327Y-77537D01*
X331140Y-77579D01*
X330900Y-77745D01*
X330980Y-76662D01*
X331700D01*
G01X333047Y-78870D02*
X333233Y-79079D01*
X333447Y-79162D01*
X333660Y-79079D01*
X333847Y-78829D01*
X333980Y-78454D01*
X334033Y-78079D01*
Y-77620D01*
X333980Y-77245D01*
X333847Y-76912D01*
X333687Y-76745D01*
X333500Y-76662D01*
X333287Y-76745D01*
X333127Y-76912D01*
X333020Y-77162D01*
X332967Y-77495D01*
X333020Y-77787D01*
X333153Y-78079D01*
X333313Y-78245D01*
X333500Y-78287D01*
X333713Y-78204D01*
X333873Y-77995D01*
X334033Y-77620D01*
G01X335700Y-79245D02*
X335647Y-79204D01*
Y-79120D01*
X335700Y-79079D01*
X335753Y-79120D01*
Y-79204D01*
X335700Y-79245D01*
G01X337900Y-76662D02*
X337687Y-76745D01*
X337527Y-76954D01*
X337420Y-77204D01*
X337340Y-77537D01*
X337313Y-77912D01*
X337340Y-78287D01*
X337420Y-78620D01*
X337527Y-78870D01*
X337687Y-79079D01*
X337900Y-79162D01*
X338113Y-79079D01*
X338273Y-78870D01*
X338380Y-78620D01*
X338460Y-78287D01*
X338487Y-77912D01*
X338460Y-77537D01*
X338380Y-77204D01*
X338273Y-76954D01*
X338113Y-76745D01*
X337900Y-76662D01*
G01X340047Y-79162D02*
X340100Y-78620D01*
X340180Y-78162D01*
X340287Y-77745D01*
X340420Y-77287D01*
X340633Y-76662D01*
X339567D01*
G01X343807Y-79162D02*
Y-76662D01*
X344500Y-78745D01*
X345193Y-76662D01*
Y-79162D01*
G01X346380Y-76662D02*
X347020D01*
G01X346700D02*
Y-79162D01*
G01X346380D02*
X347020D01*
G01X348367Y-76662D02*
Y-79162D01*
X349433D01*
G01X320000Y-509D02*
X317500D01*
X318000Y-829D01*
G01X320000D02*
Y-189D01*
G01X319167Y1344D02*
Y2038D01*
G01X317917Y3384D02*
X317667Y3544D01*
X317542Y3731D01*
X317500Y3944D01*
X317583Y4211D01*
X317792Y4398D01*
X318042Y4451D01*
X318292Y4424D01*
X318500Y4318D01*
X318917Y3784D01*
X319208Y3544D01*
X319625Y3384D01*
X320000Y3331D01*
Y4451D01*
G01X325805Y66250D02*
Y78750D01*
X331695D01*
G01X329525Y72708D02*
X325805D01*
G01X339290Y78750D02*
X343010D01*
G01X341150D02*
Y66250D01*
G01X339290D02*
X343010D01*
G01X349985D02*
Y78750D01*
X357115Y66250D01*
Y78750D01*
G01X364090D02*
X367810D01*
G01X365950D02*
Y66250D01*
G01X364090D02*
X367810D01*
G01X375095Y67916D02*
X376335Y66875D01*
X377730Y66250D01*
X378970D01*
X380210Y66875D01*
X381140Y67916D01*
X381605Y69375D01*
X381295Y70833D01*
X380520Y72083D01*
X379125Y72917D01*
X377265Y73333D01*
X376180Y74167D01*
X375715Y75625D01*
X376025Y77083D01*
X376800Y78125D01*
X377885Y78750D01*
X378970D01*
X380055Y78333D01*
X380985Y77292D01*
G01X387495Y66250D02*
Y78750D01*
G01X394005D02*
Y66250D01*
G01Y72500D02*
X387495D01*
G01X406250Y66250D02*
X400050D01*
Y78750D01*
X406250D01*
G01X403770Y72708D02*
X400050D01*
G01X412140Y66250D02*
Y78750D01*
X415240D01*
X416480Y78125D01*
X417410Y77292D01*
X418185Y76042D01*
X418805Y74583D01*
X418960Y72500D01*
X418805Y70417D01*
X418185Y68958D01*
X417410Y67708D01*
X416480Y66875D01*
X415240Y66250D01*
X412140D01*
G01X423300Y62083D02*
X432600D01*
G01X437095Y67916D02*
X438335Y66875D01*
X439730Y66250D01*
X440970D01*
X442210Y66875D01*
X443140Y67916D01*
X443605Y69375D01*
X443295Y70833D01*
X442520Y72083D01*
X441125Y72917D01*
X439265Y73333D01*
X438180Y74167D01*
X437715Y75625D01*
X438025Y77083D01*
X438800Y78125D01*
X439885Y78750D01*
X440970D01*
X442055Y78333D01*
X442985Y77292D01*
G01X450890Y78750D02*
X454610D01*
G01X452750D02*
Y66250D01*
G01X450890D02*
X454610D01*
G01X462205Y78750D02*
X468095D01*
X462205Y66250D01*
X468095D01*
G01X480650D02*
X474450D01*
Y78750D01*
X480650D01*
G01X478170Y72708D02*
X474450D01*
G01X302090Y116250D02*
Y128750D01*
X305190D01*
X306430Y128125D01*
X307360Y127292D01*
X308135Y126042D01*
X308755Y124583D01*
X308910Y122500D01*
X308755Y120417D01*
X308135Y118958D01*
X307360Y117708D01*
X306430Y116875D01*
X305190Y116250D01*
X302090D01*
G01X314800D02*
Y128750D01*
X318675D01*
X319915Y128125D01*
X320690Y127292D01*
X321000Y125625D01*
X320690Y123958D01*
X319760Y122917D01*
X318675Y122292D01*
X314800D01*
G01X318675D02*
X321000Y116250D01*
G01X328440Y128750D02*
X332160D01*
G01X330300D02*
Y116250D01*
G01X328440D02*
X332160D01*
G01X339600Y128750D02*
Y116250D01*
X345800D01*
G01X352000Y128750D02*
Y116250D01*
X358200D01*
G01X383310Y127708D02*
X382380Y128333D01*
X381295Y128750D01*
X380055D01*
X378660Y128125D01*
X377575Y127083D01*
X376800Y125833D01*
X376180Y123750D01*
X376025Y121875D01*
X376335Y120000D01*
X376800Y118750D01*
X377730Y117500D01*
X378815Y116667D01*
X379900Y116250D01*
X380985D01*
X382070Y116667D01*
X383000Y117291D01*
X383775Y118125D01*
G01X389045Y116250D02*
Y128750D01*
G01X395555D02*
Y116250D01*
G01Y122500D02*
X389045D01*
G01X400825Y116250D02*
X404700Y128750D01*
X408575Y116250D01*
G01X407180Y120625D02*
X402220D01*
G01X414000Y116250D02*
Y128750D01*
X417875D01*
X419115Y128125D01*
X419890Y127292D01*
X420200Y125625D01*
X419890Y123958D01*
X418960Y122917D01*
X417875Y122292D01*
X414000D01*
G01X417875D02*
X420200Y116250D01*
G01X429500Y128750D02*
Y116250D01*
G01X425935Y128750D02*
X433065D01*
G01X441900Y115833D02*
X441590Y116042D01*
Y116458D01*
X441900Y116667D01*
X442210Y116458D01*
Y116042D01*
X441900Y115833D01*
G01Y121458D02*
X441590Y121667D01*
Y122083D01*
X441900Y122292D01*
X442210Y122083D01*
Y121667D01*
X441900Y121458D01*
G01X466700Y128750D02*
Y116250D01*
G01X463135Y128750D02*
X470265D01*
G01X479100Y116250D02*
X477860Y116458D01*
X476775Y117291D01*
X475845Y118542D01*
X475225Y120000D01*
X474915Y121667D01*
Y123333D01*
X475225Y125000D01*
X475845Y126458D01*
X476775Y127708D01*
X477860Y128542D01*
X479100Y128750D01*
X480340Y128542D01*
X481425Y127708D01*
X482355Y126458D01*
X482975Y125000D01*
X483285Y123333D01*
Y121667D01*
X482975Y120000D01*
X482355Y118542D01*
X481425Y117291D01*
X480340Y116458D01*
X479100Y116250D01*
G01X488400D02*
Y128750D01*
X492120D01*
X493360Y128125D01*
X494290Y126667D01*
X494600Y125000D01*
X494290Y123333D01*
X493515Y122083D01*
X492120Y121458D01*
X488400D01*
G01X516300Y128750D02*
Y116250D01*
G01X514130Y124583D02*
X518470D01*
G01X528700Y116250D02*
X527770Y116458D01*
X526840Y117291D01*
X526220Y118750D01*
X525910Y120417D01*
X526220Y122083D01*
X526840Y123542D01*
X527770Y124375D01*
X528700Y124583D01*
X529630Y124375D01*
X530560Y123542D01*
X531180Y122083D01*
X531335Y120417D01*
X531180Y118750D01*
X530560Y117291D01*
X529630Y116458D01*
X528700Y116250D01*
G01X554740Y122917D02*
X555360Y123542D01*
X555825Y124583D01*
X556135Y126042D01*
X555825Y127292D01*
X555205Y128125D01*
X554120Y128750D01*
X549935D01*
Y116250D01*
X555050D01*
X556135Y117083D01*
X556755Y118333D01*
X557065Y119792D01*
X556755Y121250D01*
X555825Y122500D01*
X554740Y122917D01*
X549935D01*
G01X565900Y116250D02*
X564660Y116458D01*
X563575Y117291D01*
X562645Y118542D01*
X562025Y120000D01*
X561715Y121667D01*
Y123333D01*
X562025Y125000D01*
X562645Y126458D01*
X563575Y127708D01*
X564660Y128542D01*
X565900Y128750D01*
X567140Y128542D01*
X568225Y127708D01*
X569155Y126458D01*
X569775Y125000D01*
X570085Y123333D01*
Y121667D01*
X569775Y120000D01*
X569155Y118542D01*
X568225Y117291D01*
X567140Y116458D01*
X565900Y116250D01*
G01X578300Y128750D02*
Y116250D01*
G01X574735Y128750D02*
X581865D01*
G01X590700D02*
Y116250D01*
G01X587135Y128750D02*
X594265D01*
G01X603100Y116250D02*
X601860Y116458D01*
X600775Y117291D01*
X599845Y118542D01*
X599225Y120000D01*
X598915Y121667D01*
Y123333D01*
X599225Y125000D01*
X599845Y126458D01*
X600775Y127708D01*
X601860Y128542D01*
X603100Y128750D01*
X604340Y128542D01*
X605425Y127708D01*
X606355Y126458D01*
X606975Y125000D01*
X607285Y123333D01*
Y121667D01*
X606975Y120000D01*
X606355Y118542D01*
X605425Y117291D01*
X604340Y116458D01*
X603100Y116250D01*
G01X611470D02*
Y128750D01*
X615500Y118333D01*
X619530Y128750D01*
Y116250D01*
G01X354967Y-62991D02*
Y-65491D01*
X356033D01*
G01X357193Y-63408D02*
X357353Y-63158D01*
X357540Y-63033D01*
X357753Y-62991D01*
X358020Y-63074D01*
X358207Y-63283D01*
X358260Y-63533D01*
X358233Y-63783D01*
X358127Y-63991D01*
X357593Y-64408D01*
X357353Y-64699D01*
X357193Y-65116D01*
X357140Y-65491D01*
X358260D01*
G01X362313Y-64158D02*
X362420Y-64033D01*
X362500Y-63824D01*
X362553Y-63533D01*
X362500Y-63283D01*
X362393Y-63116D01*
X362207Y-62991D01*
X361487D01*
Y-65491D01*
X362367D01*
X362553Y-65324D01*
X362660Y-65074D01*
X362713Y-64783D01*
X362660Y-64491D01*
X362500Y-64241D01*
X362313Y-64158D01*
X361487D01*
G01X364300Y-65491D02*
X364087Y-65449D01*
X363900Y-65283D01*
X363740Y-65033D01*
X363633Y-64741D01*
X363580Y-64408D01*
Y-64074D01*
X363633Y-63741D01*
X363740Y-63449D01*
X363900Y-63199D01*
X364087Y-63033D01*
X364300Y-62991D01*
X364513Y-63033D01*
X364700Y-63199D01*
X364860Y-63449D01*
X364967Y-63741D01*
X365020Y-64074D01*
Y-64408D01*
X364967Y-64741D01*
X364860Y-65033D01*
X364700Y-65283D01*
X364513Y-65449D01*
X364300Y-65491D01*
G01X366500Y-62991D02*
Y-65491D01*
G01X365887Y-62991D02*
X367113D01*
G01X368700D02*
Y-65491D01*
G01X368087Y-62991D02*
X369313D01*
G01X370900Y-65491D02*
X370687Y-65449D01*
X370500Y-65283D01*
X370340Y-65033D01*
X370233Y-64741D01*
X370180Y-64408D01*
Y-64074D01*
X370233Y-63741D01*
X370340Y-63449D01*
X370500Y-63199D01*
X370687Y-63033D01*
X370900Y-62991D01*
X371113Y-63033D01*
X371300Y-63199D01*
X371460Y-63449D01*
X371567Y-63741D01*
X371620Y-64074D01*
Y-64408D01*
X371567Y-64741D01*
X371460Y-65033D01*
X371300Y-65283D01*
X371113Y-65449D01*
X370900Y-65491D01*
G01X372407D02*
Y-62991D01*
X373100Y-65074D01*
X373793Y-62991D01*
Y-65491D01*
G01X378087Y-63199D02*
X377927Y-63074D01*
X377740Y-62991D01*
X377527D01*
X377287Y-63116D01*
X377100Y-63324D01*
X376967Y-63574D01*
X376860Y-63991D01*
X376833Y-64366D01*
X376887Y-64741D01*
X376967Y-64991D01*
X377127Y-65241D01*
X377313Y-65408D01*
X377500Y-65491D01*
X377687D01*
X377873Y-65408D01*
X378033Y-65283D01*
X378167Y-65116D01*
G01X379700Y-65491D02*
X379487Y-65449D01*
X379300Y-65283D01*
X379140Y-65033D01*
X379033Y-64741D01*
X378980Y-64408D01*
Y-64074D01*
X379033Y-63741D01*
X379140Y-63449D01*
X379300Y-63199D01*
X379487Y-63033D01*
X379700Y-62991D01*
X379913Y-63033D01*
X380100Y-63199D01*
X380260Y-63449D01*
X380367Y-63741D01*
X380420Y-64074D01*
Y-64408D01*
X380367Y-64741D01*
X380260Y-65033D01*
X380100Y-65283D01*
X379913Y-65449D01*
X379700Y-65491D01*
G01X381287D02*
Y-62991D01*
X382513Y-65491D01*
Y-62991D01*
G01X383513Y-65491D02*
Y-62991D01*
X384047D01*
X384260Y-63116D01*
X384420Y-63283D01*
X384553Y-63533D01*
X384660Y-63824D01*
X384687Y-64241D01*
X384660Y-64658D01*
X384553Y-64949D01*
X384420Y-65199D01*
X384260Y-65366D01*
X384047Y-65491D01*
X383513D01*
G01X385713Y-62991D02*
Y-64783D01*
X385820Y-65158D01*
X386033Y-65408D01*
X386300Y-65491D01*
X386567Y-65408D01*
X386780Y-65158D01*
X386887Y-64783D01*
Y-62991D01*
G01X389087Y-63199D02*
X388927Y-63074D01*
X388740Y-62991D01*
X388527D01*
X388287Y-63116D01*
X388100Y-63324D01*
X387967Y-63574D01*
X387860Y-63991D01*
X387833Y-64366D01*
X387887Y-64741D01*
X387967Y-64991D01*
X388127Y-65241D01*
X388313Y-65408D01*
X388500Y-65491D01*
X388687D01*
X388873Y-65408D01*
X389033Y-65283D01*
X389167Y-65116D01*
G01X390700Y-62991D02*
Y-65491D01*
G01X390087Y-62991D02*
X391313D01*
G01X392900Y-65491D02*
X392687Y-65449D01*
X392500Y-65283D01*
X392340Y-65033D01*
X392233Y-64741D01*
X392180Y-64408D01*
Y-64074D01*
X392233Y-63741D01*
X392340Y-63449D01*
X392500Y-63199D01*
X392687Y-63033D01*
X392900Y-62991D01*
X393113Y-63033D01*
X393300Y-63199D01*
X393460Y-63449D01*
X393567Y-63741D01*
X393620Y-64074D01*
Y-64408D01*
X393567Y-64741D01*
X393460Y-65033D01*
X393300Y-65283D01*
X393113Y-65449D01*
X392900Y-65491D01*
G01X394567D02*
Y-62991D01*
X395233D01*
X395447Y-63116D01*
X395580Y-63283D01*
X395633Y-63616D01*
X395580Y-63949D01*
X395420Y-64158D01*
X395233Y-64283D01*
X394567D01*
G01X395233D02*
X395633Y-65491D01*
G01X399153Y-64658D02*
X399847D01*
G01X404487Y-63199D02*
X404327Y-63074D01*
X404140Y-62991D01*
X403927D01*
X403687Y-63116D01*
X403500Y-63324D01*
X403367Y-63574D01*
X403260Y-63991D01*
X403233Y-64366D01*
X403287Y-64741D01*
X403367Y-64991D01*
X403527Y-65241D01*
X403713Y-65408D01*
X403900Y-65491D01*
X404087D01*
X404273Y-65408D01*
X404433Y-65283D01*
X404567Y-65116D01*
G01X406100Y-65491D02*
X405887Y-65449D01*
X405700Y-65283D01*
X405540Y-65033D01*
X405433Y-64741D01*
X405380Y-64408D01*
Y-64074D01*
X405433Y-63741D01*
X405540Y-63449D01*
X405700Y-63199D01*
X405887Y-63033D01*
X406100Y-62991D01*
X406313Y-63033D01*
X406500Y-63199D01*
X406660Y-63449D01*
X406767Y-63741D01*
X406820Y-64074D01*
Y-64408D01*
X406767Y-64741D01*
X406660Y-65033D01*
X406500Y-65283D01*
X406313Y-65449D01*
X406100Y-65491D01*
G01X407767D02*
Y-62991D01*
X408407D01*
X408620Y-63116D01*
X408780Y-63408D01*
X408833Y-63741D01*
X408780Y-64074D01*
X408647Y-64324D01*
X408407Y-64449D01*
X407767D01*
G01X409967Y-65491D02*
Y-62991D01*
X410607D01*
X410820Y-63116D01*
X410980Y-63408D01*
X411033Y-63741D01*
X410980Y-64074D01*
X410847Y-64324D01*
X410607Y-64449D01*
X409967D01*
G01X413233Y-65491D02*
X412167D01*
Y-62991D01*
X413233D01*
G01X412807Y-64199D02*
X412167D01*
G01X414367Y-65491D02*
Y-62991D01*
X415033D01*
X415247Y-63116D01*
X415380Y-63283D01*
X415433Y-63616D01*
X415380Y-63949D01*
X415220Y-64158D01*
X415033Y-64283D01*
X414367D01*
G01X415033D02*
X415433Y-65491D01*
G01X419300Y-62991D02*
X419087Y-63074D01*
X418927Y-63283D01*
X418820Y-63533D01*
X418740Y-63866D01*
X418713Y-64241D01*
X418740Y-64616D01*
X418820Y-64949D01*
X418927Y-65199D01*
X419087Y-65408D01*
X419300Y-65491D01*
X419513Y-65408D01*
X419673Y-65199D01*
X419780Y-64949D01*
X419860Y-64616D01*
X419887Y-64241D01*
X419860Y-63866D01*
X419780Y-63533D01*
X419673Y-63283D01*
X419513Y-63074D01*
X419300Y-62991D01*
G01X421500Y-65574D02*
X421447Y-65533D01*
Y-65449D01*
X421500Y-65408D01*
X421553Y-65449D01*
Y-65533D01*
X421500Y-65574D01*
G01X423647Y-65491D02*
X423700Y-64949D01*
X423780Y-64491D01*
X423887Y-64074D01*
X424020Y-63616D01*
X424233Y-62991D01*
X423167D01*
G01X425393Y-63408D02*
X425553Y-63158D01*
X425740Y-63033D01*
X425953Y-62991D01*
X426220Y-63074D01*
X426407Y-63283D01*
X426460Y-63533D01*
X426433Y-63783D01*
X426327Y-63991D01*
X425793Y-64408D01*
X425553Y-64699D01*
X425393Y-65116D01*
X425340Y-65491D01*
X426460D01*
G01X429607D02*
Y-62991D01*
X430300Y-65074D01*
X430993Y-62991D01*
Y-65491D01*
G01X432180Y-62991D02*
X432820D01*
G01X432500D02*
Y-65491D01*
G01X432180D02*
X432820D01*
G01X434167Y-62991D02*
Y-65491D01*
X435233D01*
G01X359313Y-68907D02*
X360487Y-67074D01*
G01X359900Y-66741D02*
Y-69241D01*
G01X360487Y-68907D02*
X359313Y-67074D01*
G01X359100Y-67991D02*
X360700D01*
G01X365940Y-68491D02*
X366153Y-68699D01*
X366393Y-68824D01*
X366607D01*
X366820Y-68699D01*
X366980Y-68491D01*
X367060Y-68199D01*
X367007Y-67907D01*
X366873Y-67657D01*
X366633Y-67491D01*
X366313Y-67407D01*
X366127Y-67241D01*
X366047Y-66949D01*
X366100Y-66657D01*
X366233Y-66449D01*
X366420Y-66324D01*
X366607D01*
X366793Y-66407D01*
X366953Y-66616D01*
G01X368113Y-66324D02*
Y-68116D01*
X368220Y-68491D01*
X368433Y-68741D01*
X368700Y-68824D01*
X368967Y-68741D01*
X369180Y-68491D01*
X369287Y-68116D01*
Y-66324D01*
G01X370367Y-68824D02*
Y-66324D01*
X371033D01*
X371247Y-66449D01*
X371380Y-66616D01*
X371433Y-66949D01*
X371380Y-67282D01*
X371220Y-67491D01*
X371033Y-67616D01*
X370367D01*
G01X371033D02*
X371433Y-68824D01*
G01X372593D02*
Y-66324D01*
X373607D01*
G01X373233Y-67532D02*
X372593D01*
G01X374633Y-68824D02*
X375300Y-66324D01*
X375967Y-68824D01*
G01X375727Y-67949D02*
X374873D01*
G01X378087Y-66532D02*
X377927Y-66407D01*
X377740Y-66324D01*
X377527D01*
X377287Y-66449D01*
X377100Y-66657D01*
X376967Y-66907D01*
X376860Y-67324D01*
X376833Y-67699D01*
X376887Y-68074D01*
X376967Y-68324D01*
X377127Y-68574D01*
X377313Y-68741D01*
X377500Y-68824D01*
X377687D01*
X377873Y-68741D01*
X378033Y-68616D01*
X378167Y-68449D01*
G01X380233Y-68824D02*
X379167D01*
Y-66324D01*
X380233D01*
G01X379807Y-67532D02*
X379167D01*
G01X383753Y-67991D02*
X384447D01*
G01X387833Y-68824D02*
X388500Y-66324D01*
X389167Y-68824D01*
G01X388927Y-67949D02*
X388073D01*
G01X390380Y-66324D02*
X391020D01*
G01X390700D02*
Y-68824D01*
G01X390380D02*
X391020D01*
G01X392367D02*
Y-66324D01*
X393033D01*
X393247Y-66449D01*
X393380Y-66616D01*
X393433Y-66949D01*
X393380Y-67282D01*
X393220Y-67491D01*
X393033Y-67616D01*
X392367D01*
G01X393033D02*
X393433Y-68824D01*
G01X397300Y-66324D02*
X397087Y-66407D01*
X396927Y-66616D01*
X396820Y-66866D01*
X396740Y-67199D01*
X396713Y-67574D01*
X396740Y-67949D01*
X396820Y-68282D01*
X396927Y-68532D01*
X397087Y-68741D01*
X397300Y-68824D01*
X397513Y-68741D01*
X397673Y-68532D01*
X397780Y-68282D01*
X397860Y-67949D01*
X397887Y-67574D01*
X397860Y-67199D01*
X397780Y-66866D01*
X397673Y-66616D01*
X397513Y-66407D01*
X397300Y-66324D01*
G01X401007Y-68824D02*
Y-66324D01*
X401700Y-68407D01*
X402393Y-66324D01*
Y-68824D01*
G01X403580Y-66324D02*
X404220D01*
G01X403900D02*
Y-68824D01*
G01X403580D02*
X404220D01*
G01X405567Y-66324D02*
Y-68824D01*
X406633D01*
G01X359313Y-33426D02*
X360487Y-31593D01*
G01X359900Y-31260D02*
Y-33760D01*
G01X360487Y-33426D02*
X359313Y-31593D01*
G01X359100Y-32510D02*
X360700D01*
G01X365913Y-33343D02*
Y-30843D01*
X366447D01*
X366660Y-30968D01*
X366820Y-31135D01*
X366953Y-31385D01*
X367060Y-31676D01*
X367087Y-32093D01*
X367060Y-32510D01*
X366953Y-32801D01*
X366820Y-33051D01*
X366660Y-33218D01*
X366447Y-33343D01*
X365913D01*
G01X368380Y-30843D02*
X369020D01*
G01X368700D02*
Y-33343D01*
G01X368380D02*
X369020D01*
G01X371433D02*
X370367D01*
Y-30843D01*
X371433D01*
G01X371007Y-32051D02*
X370367D01*
G01X372567Y-30843D02*
Y-33343D01*
X373633D01*
G01X375833D02*
X374767D01*
Y-30843D01*
X375833D01*
G01X375407Y-32051D02*
X374767D01*
G01X378087Y-31051D02*
X377927Y-30926D01*
X377740Y-30843D01*
X377527D01*
X377287Y-30968D01*
X377100Y-31176D01*
X376967Y-31426D01*
X376860Y-31843D01*
X376833Y-32218D01*
X376887Y-32593D01*
X376967Y-32843D01*
X377127Y-33093D01*
X377313Y-33260D01*
X377500Y-33343D01*
X377687D01*
X377873Y-33260D01*
X378033Y-33135D01*
X378167Y-32968D01*
G01X379700Y-30843D02*
Y-33343D01*
G01X379087Y-30843D02*
X380313D01*
G01X381367Y-33343D02*
Y-30843D01*
X382033D01*
X382247Y-30968D01*
X382380Y-31135D01*
X382433Y-31468D01*
X382380Y-31801D01*
X382220Y-32010D01*
X382033Y-32135D01*
X381367D01*
G01X382033D02*
X382433Y-33343D01*
G01X383780Y-30843D02*
X384420D01*
G01X384100D02*
Y-33343D01*
G01X383780D02*
X384420D01*
G01X386887Y-31051D02*
X386727Y-30926D01*
X386540Y-30843D01*
X386327D01*
X386087Y-30968D01*
X385900Y-31176D01*
X385767Y-31426D01*
X385660Y-31843D01*
X385633Y-32218D01*
X385687Y-32593D01*
X385767Y-32843D01*
X385927Y-33093D01*
X386113Y-33260D01*
X386300Y-33343D01*
X386487D01*
X386673Y-33260D01*
X386833Y-33135D01*
X386967Y-32968D01*
G01X390353Y-32510D02*
X391047D01*
G01X394593Y-33343D02*
Y-30843D01*
X395607D01*
G01X395233Y-32051D02*
X394593D01*
G01X396767Y-33343D02*
Y-30843D01*
X397433D01*
X397647Y-30968D01*
X397780Y-31135D01*
X397833Y-31468D01*
X397780Y-31801D01*
X397620Y-32010D01*
X397433Y-32135D01*
X396767D01*
G01X397433D02*
X397833Y-33343D01*
G01X399153Y-32510D02*
X399847D01*
G01X402020Y-33343D02*
Y-30843D01*
X401033Y-32635D01*
X402367D01*
G01X405513Y-32968D02*
X405673Y-33176D01*
X405860Y-33301D01*
X406100Y-33343D01*
X406340Y-33260D01*
X406527Y-33093D01*
X406660Y-32801D01*
X406687Y-32468D01*
X406633Y-32135D01*
X406500Y-31926D01*
X406313Y-31760D01*
X406127Y-31718D01*
X405940Y-31760D01*
X405700Y-31926D01*
X405780Y-30843D01*
X406500D01*
G01X408247Y-33343D02*
X408300Y-32801D01*
X408380Y-32343D01*
X408487Y-31926D01*
X408620Y-31468D01*
X408833Y-30843D01*
X407767D01*
G01X410500Y-33426D02*
X410447Y-33385D01*
Y-33301D01*
X410500Y-33260D01*
X410553Y-33301D01*
Y-33385D01*
X410500Y-33426D01*
G01X412193Y-32301D02*
X412380Y-32010D01*
X412540Y-31843D01*
X412753Y-31760D01*
X412940Y-31843D01*
X413073Y-32010D01*
X413180Y-32260D01*
X413207Y-32551D01*
X413180Y-32801D01*
X413073Y-33051D01*
X412913Y-33260D01*
X412727Y-33343D01*
X412513Y-33260D01*
X412327Y-33010D01*
X412220Y-32635D01*
X412193Y-32218D01*
X412247Y-31676D01*
X412327Y-31385D01*
X412460Y-31093D01*
X412647Y-30885D01*
X412833Y-30843D01*
X413020Y-30926D01*
X413153Y-31135D01*
G01X414313Y-32843D02*
X414473Y-33135D01*
X414687Y-33301D01*
X414927Y-33343D01*
X415140Y-33301D01*
X415353Y-33093D01*
X415487Y-32843D01*
X415513Y-32593D01*
X415460Y-32301D01*
X415273Y-32093D01*
X415087Y-32010D01*
X414847D01*
G01X415087D02*
X415247Y-31885D01*
X415380Y-31676D01*
X415433Y-31426D01*
X415380Y-31176D01*
X415247Y-30968D01*
X415007Y-30843D01*
X414767Y-30885D01*
X414527Y-31051D01*
G01X418607Y-33343D02*
Y-30843D01*
X419300Y-32926D01*
X419993Y-30843D01*
Y-33343D01*
G01X421180Y-30843D02*
X421820D01*
G01X421500D02*
Y-33343D01*
G01X421180D02*
X421820D01*
G01X423167Y-30843D02*
Y-33343D01*
X424233D01*
G01X359313Y-3059D02*
X360487Y-1226D01*
G01X359900Y-893D02*
Y-3393D01*
G01X360487Y-3059D02*
X359313Y-1226D01*
G01X359100Y-2143D02*
X360700D01*
G01X365940Y-2643D02*
X366153Y-2851D01*
X366393Y-2976D01*
X366607D01*
X366820Y-2851D01*
X366980Y-2643D01*
X367060Y-2351D01*
X367007Y-2059D01*
X366873Y-1809D01*
X366633Y-1643D01*
X366313Y-1559D01*
X366127Y-1393D01*
X366047Y-1101D01*
X366100Y-809D01*
X366233Y-601D01*
X366420Y-476D01*
X366607D01*
X366793Y-559D01*
X366953Y-768D01*
G01X368113Y-476D02*
Y-2268D01*
X368220Y-2643D01*
X368433Y-2893D01*
X368700Y-2976D01*
X368967Y-2893D01*
X369180Y-2643D01*
X369287Y-2268D01*
Y-476D01*
G01X370367Y-2976D02*
Y-476D01*
X371033D01*
X371247Y-601D01*
X371380Y-768D01*
X371433Y-1101D01*
X371380Y-1434D01*
X371220Y-1643D01*
X371033Y-1768D01*
X370367D01*
G01X371033D02*
X371433Y-2976D01*
G01X372593D02*
Y-476D01*
X373607D01*
G01X373233Y-1684D02*
X372593D01*
G01X374633Y-2976D02*
X375300Y-476D01*
X375967Y-2976D01*
G01X375727Y-2101D02*
X374873D01*
G01X378087Y-684D02*
X377927Y-559D01*
X377740Y-476D01*
X377527D01*
X377287Y-601D01*
X377100Y-809D01*
X376967Y-1059D01*
X376860Y-1476D01*
X376833Y-1851D01*
X376887Y-2226D01*
X376967Y-2476D01*
X377127Y-2726D01*
X377313Y-2893D01*
X377500Y-2976D01*
X377687D01*
X377873Y-2893D01*
X378033Y-2768D01*
X378167Y-2601D01*
G01X380233Y-2976D02*
X379167D01*
Y-476D01*
X380233D01*
G01X379807Y-1684D02*
X379167D01*
G01X383753Y-2143D02*
X384447D01*
G01X387833Y-2976D02*
X388500Y-476D01*
X389167Y-2976D01*
G01X388927Y-2101D02*
X388073D01*
G01X390380Y-476D02*
X391020D01*
G01X390700D02*
Y-2976D01*
G01X390380D02*
X391020D01*
G01X392367D02*
Y-476D01*
X393033D01*
X393247Y-601D01*
X393380Y-768D01*
X393433Y-1101D01*
X393380Y-1434D01*
X393220Y-1643D01*
X393033Y-1768D01*
X392367D01*
G01X393033D02*
X393433Y-2976D01*
G01X397300Y-476D02*
X397087Y-559D01*
X396927Y-768D01*
X396820Y-1018D01*
X396740Y-1351D01*
X396713Y-1726D01*
X396740Y-2101D01*
X396820Y-2434D01*
X396927Y-2684D01*
X397087Y-2893D01*
X397300Y-2976D01*
X397513Y-2893D01*
X397673Y-2684D01*
X397780Y-2434D01*
X397860Y-2101D01*
X397887Y-1726D01*
X397860Y-1351D01*
X397780Y-1018D01*
X397673Y-768D01*
X397513Y-559D01*
X397300Y-476D01*
G01X401007Y-2976D02*
Y-476D01*
X401700Y-2559D01*
X402393Y-476D01*
Y-2976D01*
G01X403580Y-476D02*
X404220D01*
G01X403900D02*
Y-2976D01*
G01X403580D02*
X404220D01*
G01X405567Y-476D02*
Y-2976D01*
X406633D01*
G01X354967Y-4642D02*
Y-7142D01*
X356033D01*
G01X357700D02*
Y-4642D01*
X357380Y-5142D01*
G01Y-7142D02*
X358020D01*
G01X362100Y-4642D02*
Y-7142D01*
G01X361487Y-4642D02*
X362713D01*
G01X364300Y-7142D02*
X364087Y-7100D01*
X363900Y-6934D01*
X363740Y-6684D01*
X363633Y-6392D01*
X363580Y-6059D01*
Y-5725D01*
X363633Y-5392D01*
X363740Y-5100D01*
X363900Y-4850D01*
X364087Y-4684D01*
X364300Y-4642D01*
X364513Y-4684D01*
X364700Y-4850D01*
X364860Y-5100D01*
X364967Y-5392D01*
X365020Y-5725D01*
Y-6059D01*
X364967Y-6392D01*
X364860Y-6684D01*
X364700Y-6934D01*
X364513Y-7100D01*
X364300Y-7142D01*
G01X365967D02*
Y-4642D01*
X366607D01*
X366820Y-4767D01*
X366980Y-5059D01*
X367033Y-5392D01*
X366980Y-5725D01*
X366847Y-5975D01*
X366607Y-6100D01*
X365967D01*
G01X371487Y-4850D02*
X371327Y-4725D01*
X371140Y-4642D01*
X370927D01*
X370687Y-4767D01*
X370500Y-4975D01*
X370367Y-5225D01*
X370260Y-5642D01*
X370233Y-6017D01*
X370287Y-6392D01*
X370367Y-6642D01*
X370527Y-6892D01*
X370713Y-7059D01*
X370900Y-7142D01*
X371087D01*
X371273Y-7059D01*
X371433Y-6934D01*
X371567Y-6767D01*
G01X373100Y-7142D02*
X372887Y-7100D01*
X372700Y-6934D01*
X372540Y-6684D01*
X372433Y-6392D01*
X372380Y-6059D01*
Y-5725D01*
X372433Y-5392D01*
X372540Y-5100D01*
X372700Y-4850D01*
X372887Y-4684D01*
X373100Y-4642D01*
X373313Y-4684D01*
X373500Y-4850D01*
X373660Y-5100D01*
X373767Y-5392D01*
X373820Y-5725D01*
Y-6059D01*
X373767Y-6392D01*
X373660Y-6684D01*
X373500Y-6934D01*
X373313Y-7100D01*
X373100Y-7142D01*
G01X374687D02*
Y-4642D01*
X375913Y-7142D01*
Y-4642D01*
G01X376913Y-7142D02*
Y-4642D01*
X377447D01*
X377660Y-4767D01*
X377820Y-4934D01*
X377953Y-5184D01*
X378060Y-5475D01*
X378087Y-5892D01*
X378060Y-6309D01*
X377953Y-6600D01*
X377820Y-6850D01*
X377660Y-7017D01*
X377447Y-7142D01*
X376913D01*
G01X379113Y-4642D02*
Y-6434D01*
X379220Y-6809D01*
X379433Y-7059D01*
X379700Y-7142D01*
X379967Y-7059D01*
X380180Y-6809D01*
X380287Y-6434D01*
Y-4642D01*
G01X382487Y-4850D02*
X382327Y-4725D01*
X382140Y-4642D01*
X381927D01*
X381687Y-4767D01*
X381500Y-4975D01*
X381367Y-5225D01*
X381260Y-5642D01*
X381233Y-6017D01*
X381287Y-6392D01*
X381367Y-6642D01*
X381527Y-6892D01*
X381713Y-7059D01*
X381900Y-7142D01*
X382087D01*
X382273Y-7059D01*
X382433Y-6934D01*
X382567Y-6767D01*
G01X384100Y-4642D02*
Y-7142D01*
G01X383487Y-4642D02*
X384713D01*
G01X386300Y-7142D02*
X386087Y-7100D01*
X385900Y-6934D01*
X385740Y-6684D01*
X385633Y-6392D01*
X385580Y-6059D01*
Y-5725D01*
X385633Y-5392D01*
X385740Y-5100D01*
X385900Y-4850D01*
X386087Y-4684D01*
X386300Y-4642D01*
X386513Y-4684D01*
X386700Y-4850D01*
X386860Y-5100D01*
X386967Y-5392D01*
X387020Y-5725D01*
Y-6059D01*
X386967Y-6392D01*
X386860Y-6684D01*
X386700Y-6934D01*
X386513Y-7100D01*
X386300Y-7142D01*
G01X387967D02*
Y-4642D01*
X388633D01*
X388847Y-4767D01*
X388980Y-4934D01*
X389033Y-5267D01*
X388980Y-5600D01*
X388820Y-5809D01*
X388633Y-5934D01*
X387967D01*
G01X388633D02*
X389033Y-7142D01*
G01X392553Y-6309D02*
X393247D01*
G01X397887Y-4850D02*
X397727Y-4725D01*
X397540Y-4642D01*
X397327D01*
X397087Y-4767D01*
X396900Y-4975D01*
X396767Y-5225D01*
X396660Y-5642D01*
X396633Y-6017D01*
X396687Y-6392D01*
X396767Y-6642D01*
X396927Y-6892D01*
X397113Y-7059D01*
X397300Y-7142D01*
X397487D01*
X397673Y-7059D01*
X397833Y-6934D01*
X397967Y-6767D01*
G01X399500Y-7142D02*
X399287Y-7100D01*
X399100Y-6934D01*
X398940Y-6684D01*
X398833Y-6392D01*
X398780Y-6059D01*
Y-5725D01*
X398833Y-5392D01*
X398940Y-5100D01*
X399100Y-4850D01*
X399287Y-4684D01*
X399500Y-4642D01*
X399713Y-4684D01*
X399900Y-4850D01*
X400060Y-5100D01*
X400167Y-5392D01*
X400220Y-5725D01*
Y-6059D01*
X400167Y-6392D01*
X400060Y-6684D01*
X399900Y-6934D01*
X399713Y-7100D01*
X399500Y-7142D01*
G01X401167D02*
Y-4642D01*
X401807D01*
X402020Y-4767D01*
X402180Y-5059D01*
X402233Y-5392D01*
X402180Y-5725D01*
X402047Y-5975D01*
X401807Y-6100D01*
X401167D01*
G01X403367Y-7142D02*
Y-4642D01*
X404007D01*
X404220Y-4767D01*
X404380Y-5059D01*
X404433Y-5392D01*
X404380Y-5725D01*
X404247Y-5975D01*
X404007Y-6100D01*
X403367D01*
G01X406633Y-7142D02*
X405567D01*
Y-4642D01*
X406633D01*
G01X406207Y-5850D02*
X405567D01*
G01X407767Y-7142D02*
Y-4642D01*
X408433D01*
X408647Y-4767D01*
X408780Y-4934D01*
X408833Y-5267D01*
X408780Y-5600D01*
X408620Y-5809D01*
X408433Y-5934D01*
X407767D01*
G01X408433D02*
X408833Y-7142D01*
G01X412700Y-4642D02*
X412487Y-4725D01*
X412327Y-4934D01*
X412220Y-5184D01*
X412140Y-5517D01*
X412113Y-5892D01*
X412140Y-6267D01*
X412220Y-6600D01*
X412327Y-6850D01*
X412487Y-7059D01*
X412700Y-7142D01*
X412913Y-7059D01*
X413073Y-6850D01*
X413180Y-6600D01*
X413260Y-6267D01*
X413287Y-5892D01*
X413260Y-5517D01*
X413180Y-5184D01*
X413073Y-4934D01*
X412913Y-4725D01*
X412700Y-4642D01*
G01X414900Y-7225D02*
X414847Y-7184D01*
Y-7100D01*
X414900Y-7059D01*
X414953Y-7100D01*
Y-7184D01*
X414900Y-7225D01*
G01X417047Y-7142D02*
X417100Y-6600D01*
X417180Y-6142D01*
X417287Y-5725D01*
X417420Y-5267D01*
X417633Y-4642D01*
X416567D01*
G01X418793Y-5059D02*
X418953Y-4809D01*
X419140Y-4684D01*
X419353Y-4642D01*
X419620Y-4725D01*
X419807Y-4934D01*
X419860Y-5184D01*
X419833Y-5434D01*
X419727Y-5642D01*
X419193Y-6059D01*
X418953Y-6350D01*
X418793Y-6767D01*
X418740Y-7142D01*
X419860D01*
G01X423007D02*
Y-4642D01*
X423700Y-6725D01*
X424393Y-4642D01*
Y-7142D01*
G01X425580Y-4642D02*
X426220D01*
G01X425900D02*
Y-7142D01*
G01X425580D02*
X426220D01*
G01X427567Y-4642D02*
Y-7142D01*
X428633D01*
G01X332625Y91250D02*
X336500Y103750D01*
X340375Y91250D01*
G01X338980Y95625D02*
X334020D01*
G01X345800Y103750D02*
Y91250D01*
X352000D01*
G01X358200Y103750D02*
Y91250D01*
X364400D01*
G01X382690Y103750D02*
Y94792D01*
X383310Y92916D01*
X384550Y91667D01*
X386100Y91250D01*
X387650Y91667D01*
X388890Y92916D01*
X389510Y94792D01*
Y103750D01*
G01X394935Y91250D02*
Y103750D01*
X402065Y91250D01*
Y103750D01*
G01X409040D02*
X412760D01*
G01X410900D02*
Y91250D01*
G01X409040D02*
X412760D01*
G01X423300Y103750D02*
Y91250D01*
G01X419735Y103750D02*
X426865D01*
G01X432445Y92916D02*
X433685Y91875D01*
X435080Y91250D01*
X436320D01*
X437560Y91875D01*
X438490Y92916D01*
X438955Y94375D01*
X438645Y95833D01*
X437870Y97083D01*
X436475Y97917D01*
X434615Y98333D01*
X433530Y99167D01*
X433065Y100625D01*
X433375Y102083D01*
X434150Y103125D01*
X435235Y103750D01*
X436320D01*
X437405Y103333D01*
X438335Y102292D01*
G01X456625Y91250D02*
X460500Y103750D01*
X464375Y91250D01*
G01X462980Y95625D02*
X458020D01*
G01X469800Y91250D02*
Y103750D01*
X473675D01*
X474915Y103125D01*
X475690Y102292D01*
X476000Y100625D01*
X475690Y98958D01*
X474760Y97917D01*
X473675Y97292D01*
X469800D01*
G01X473675D02*
X476000Y91250D01*
G01X488400D02*
X482200D01*
Y103750D01*
X488400D01*
G01X485920Y97708D02*
X482200D01*
G01X508240Y103750D02*
X511960D01*
G01X510100D02*
Y91250D01*
G01X508240D02*
X511960D01*
G01X518935D02*
Y103750D01*
X526065Y91250D01*
Y103750D01*
G01X543270Y91250D02*
Y103750D01*
X547300Y93333D01*
X551330Y103750D01*
Y91250D01*
G01X557840Y103750D02*
X561560D01*
G01X559700D02*
Y91250D01*
G01X557840D02*
X561560D01*
G01X569000Y103750D02*
Y91250D01*
X575200D01*
G01X581245Y92916D02*
X582485Y91875D01*
X583880Y91250D01*
X585120D01*
X586360Y91875D01*
X587290Y92916D01*
X587755Y94375D01*
X587445Y95833D01*
X586670Y97083D01*
X585275Y97917D01*
X583415Y98333D01*
X582330Y99167D01*
X581865Y100625D01*
X582175Y102083D01*
X582950Y103125D01*
X584035Y103750D01*
X585120D01*
X586205Y103333D01*
X587135Y102292D01*
G01X378350Y41250D02*
Y53750D01*
X376490Y51250D01*
G01Y41250D02*
X380210D01*
G01X387340Y43125D02*
X388270Y42083D01*
X389355Y41458D01*
X390750Y41250D01*
X392145Y41667D01*
X393230Y42500D01*
X394005Y43958D01*
X394160Y45625D01*
X393850Y47292D01*
X393075Y48333D01*
X391990Y49167D01*
X390905Y49375D01*
X389820Y49167D01*
X388425Y48333D01*
X388890Y53750D01*
X393075D01*
G01X403150Y40833D02*
X402840Y41042D01*
Y41458D01*
X403150Y41667D01*
X403460Y41458D01*
Y41042D01*
X403150Y40833D01*
G01X415240Y41250D02*
X415550Y43958D01*
X416015Y46250D01*
X416635Y48333D01*
X417410Y50625D01*
X418650Y53750D01*
X412450D01*
G01X424540Y43125D02*
X425470Y42083D01*
X426555Y41458D01*
X427950Y41250D01*
X429345Y41667D01*
X430430Y42500D01*
X431205Y43958D01*
X431360Y45625D01*
X431050Y47292D01*
X430275Y48333D01*
X429190Y49167D01*
X428105Y49375D01*
X427020Y49167D01*
X425625Y48333D01*
X426090Y53750D01*
X430275D01*
G01X533350Y41250D02*
Y53750D01*
X537070D01*
X538310Y53125D01*
X539240Y51667D01*
X539550Y50000D01*
X539240Y48333D01*
X538465Y47083D01*
X537070Y46458D01*
X533350D01*
G01X545750Y53750D02*
Y41250D01*
X551950D01*
G01X557375D02*
X561250Y53750D01*
X565125Y41250D01*
G01X563730Y45625D02*
X558770D01*
G01X573650Y53750D02*
Y41250D01*
G01X570085Y53750D02*
X577215D01*
G01X589150Y41250D02*
X582950D01*
Y53750D01*
X589150D01*
G01X586670Y47708D02*
X582950D01*
G01X595040Y41250D02*
Y53750D01*
X598140D01*
X599380Y53125D01*
X600310Y52292D01*
X601085Y51042D01*
X601705Y49583D01*
X601860Y47500D01*
X601705Y45417D01*
X601085Y43958D01*
X600310Y42708D01*
X599380Y41875D01*
X598140Y41250D01*
X595040D01*
G01X533350Y66250D02*
Y78750D01*
X537070D01*
X538310Y78125D01*
X539240Y76667D01*
X539550Y75000D01*
X539240Y73333D01*
X538465Y72083D01*
X537070Y71458D01*
X533350D01*
G01X545750Y78750D02*
Y66250D01*
X551950D01*
G01X557375D02*
X561250Y78750D01*
X565125Y66250D01*
G01X563730Y70625D02*
X558770D01*
G01X573650Y78750D02*
Y66250D01*
G01X570085Y78750D02*
X577215D01*
G01X589150Y66250D02*
X582950D01*
Y78750D01*
X589150D01*
G01X586670Y72708D02*
X582950D01*
G01X595040Y66250D02*
Y78750D01*
X598140D01*
X599380Y78125D01*
X600310Y77292D01*
X601085Y76042D01*
X601705Y74583D01*
X601860Y72500D01*
X601705Y70417D01*
X601085Y68958D01*
X600310Y67708D01*
X599380Y66875D01*
X598140Y66250D01*
X595040D01*
G01X663550Y41250D02*
Y53750D01*
X661690Y51250D01*
G01Y41250D02*
X665410D01*
G01X673005Y51667D02*
X673935Y52916D01*
X675020Y53542D01*
X676260Y53750D01*
X677810Y53333D01*
X678895Y52292D01*
X679205Y51042D01*
X679050Y49791D01*
X678430Y48750D01*
X675330Y46667D01*
X673935Y45208D01*
X673005Y43125D01*
X672695Y41250D01*
X679205D01*
G01X657350Y66250D02*
X656110Y66458D01*
X655025Y67291D01*
X654095Y68542D01*
X653475Y70000D01*
X653165Y71667D01*
Y73333D01*
X653475Y75000D01*
X654095Y76458D01*
X655025Y77708D01*
X656110Y78542D01*
X657350Y78750D01*
X658590Y78542D01*
X659675Y77708D01*
X660605Y76458D01*
X661225Y75000D01*
X661535Y73333D01*
Y71667D01*
X661225Y70000D01*
X660605Y68542D01*
X659675Y67291D01*
X658590Y66458D01*
X657350Y66250D01*
G01X658590Y69583D02*
X660450Y66250D01*
G01X669750Y78750D02*
Y66250D01*
G01X666185Y78750D02*
X673315D01*
G01X682150Y66250D02*
Y71875D01*
X679050Y78750D01*
G01X685250D02*
X682150Y71875D01*
G54D12*
G01X212500Y35000D02*
Y135000D01*
X708500D01*
Y35000D01*
X212500D01*
G01Y60000D02*
X708500D01*
G01X212500Y85000D02*
X708500D01*
G01X212500Y110000D02*
X708500D01*
G01X292500Y-62158D02*
Y-4528D01*
X352500D01*
Y-62158D01*
X292500D01*
G01X302400Y85000D02*
Y35000D01*
G01X503900Y85000D02*
Y35000D01*
G01X631000Y85000D02*
Y35000D01*
M02*
