G04 ================== begin FILE IDENTIFICATION RECORD ==================*
G04 Layout Name:  C:/Users/alex1/Desktop/Proiect1 Final/p1.brd*
G04 Film Name:    SMTOP*
G04 File Format:  Gerber RS274X*
G04 File Origin:  Cadence Allegro 17.2-S025*
G04 Origin Date:  Thu Dec 16 20:07:40 2021*
G04 *
G04 Layer:  VIA CLASS/SOLDERMASK_TOP*
G04 Layer:  PIN/SOLDERMASK_TOP*
G04 Layer:  PACKAGE GEOMETRY/SOLDERMASK_TOP*
G04 Layer:  DRC ERROR CLASS/SOLDERMASK_TOP*
G04 Layer:  BOARD GEOMETRY/SOLDERMASK_TOP*
G04 *
G04 Offset:    (0.00 0.00)*
G04 Mirror:    No*
G04 Mode:      Positive*
G04 Rotation:  0*
G04 FullContactRelief:  No*
G04 UndefLineWidth:     10.00*
G04 ================== end FILE IDENTIFICATION RECORD ====================*
%FSLAX25Y25*MOIN*%
%IR0*IPPOS*OFA0.00000B0.00000*MIA0B0*SFA1.00000B1.00000*%
%ADD16R,.12X.076*%
%ADD14R,.076X.12*%
%ADD11C,.0315*%
%ADD10R,.05X.05*%
%ADD13C,.07874*%
%ADD15R,.046X.05984*%
%ADD12R,.05984X.046*%
%LPD*%
G75*
G54D10*
X10000Y10000D03*
Y18400D03*
Y50000D03*
Y30000D03*
Y38400D03*
X25000Y27500D03*
Y35900D03*
X10000Y58400D03*
X20000Y130000D03*
Y138400D03*
X30000Y130000D03*
Y138400D03*
X40000Y20000D03*
X60000Y16600D03*
X40000Y28400D03*
X37500Y40000D03*
Y48400D03*
X60000Y25000D03*
Y42500D03*
Y50900D03*
Y65000D03*
X50000Y130000D03*
Y138400D03*
X70000Y20000D03*
Y28400D03*
X90000Y40000D03*
Y48400D03*
X68400Y65000D03*
X80000D03*
X88400D03*
X82500Y80000D03*
X74100D03*
X91600Y95000D03*
X70000Y120000D03*
Y128400D03*
X89100Y125000D03*
X100000Y65000D03*
X108400D03*
X102500Y80000D03*
X94100D03*
X117500Y65000D03*
Y73400D03*
X92500Y110000D03*
X100900D03*
X100000Y95000D03*
X97500Y125000D03*
X140000Y80000D03*
X131600D03*
X140000Y100000D03*
Y91600D03*
G54D11*
X25000Y10000D03*
X55000Y97500D03*
X42500D03*
X47500Y102500D03*
X55700Y101800D03*
X47500Y115000D03*
X55000Y120000D03*
X67500Y37500D03*
X115000Y95000D03*
X137500Y55000D03*
X130000Y95000D03*
X150000Y117500D03*
G54D12*
X31900Y64100D03*
X40000Y60000D03*
Y68200D03*
X60000Y80000D03*
X51900Y84100D03*
X60000Y88200D03*
X73100Y105900D03*
X65000Y110000D03*
Y101800D03*
X118100Y135900D03*
X110000Y140000D03*
Y131800D03*
G54D13*
X20000Y97500D03*
Y112500D03*
G54D14*
X90000Y20000D03*
X113600D03*
G54D15*
X115000Y107500D03*
X119100Y115600D03*
X123200Y107500D03*
G54D16*
X132500Y17500D03*
Y41100D03*
X137500Y142500D03*
Y118900D03*
M02*
