G04 ================== begin FILE IDENTIFICATION RECORD ==================*
G04 Layout Name:  C:/Users/alex1/Desktop/Proiect1 Final/p1.brd*
G04 Film Name:    SSTOP*
G04 File Format:  Gerber RS274X*
G04 File Origin:  Cadence Allegro 17.2-S025*
G04 Origin Date:  Thu Dec 16 20:07:40 2021*
G04 *
G04 Layer:  USER PART NUMBER/SILKSCREEN_TOP*
G04 Layer:  TOLERANCE/SILKSCREEN_TOP*
G04 Layer:  REF DES/SILKSCREEN_TOP*
G04 Layer:  PACKAGE GEOMETRY/SILKSCREEN_TOP*
G04 Layer:  DEVICE TYPE/SILKSCREEN_TOP*
G04 Layer:  COMPONENT VALUE/SILKSCREEN_TOP*
G04 Layer:  BOARD GEOMETRY/SILKSCREEN_TOP*
G04 *
G04 Offset:    (0.00 0.00)*
G04 Mirror:    No*
G04 Mode:      Positive*
G04 Rotation:  0*
G04 FullContactRelief:  No*
G04 UndefLineWidth:     10.00*
G04 ================== end FILE IDENTIFICATION RECORD ====================*
%FSLAX25Y25*MOIN*%
%IR0*IPPOS*OFA0.00000B0.00000*MIA0B0*SFA1.00000B1.00000*%
%ADD10C,.0001*%
%ADD11C,.01*%
%ADD12C,.006*%
G75*
%LPD*%
G75*
G54D10*
G01X15417Y15793D02*
X15167Y15413D01*
X15000Y14970D01*
Y14463D01*
X15250Y13893D01*
X15667Y13450D01*
X16167Y13133D01*
X17000Y12880D01*
X17750Y12817D01*
X18500Y12943D01*
X19000Y13133D01*
X19500Y13513D01*
X19833Y13957D01*
X20000Y14400D01*
Y14843D01*
X19833Y15287D01*
X19583Y15667D01*
X19250Y15983D01*
G01X15833Y18297D02*
X15333Y18677D01*
X15083Y19120D01*
X15000Y19627D01*
X15167Y20260D01*
X15583Y20703D01*
X16083Y20830D01*
X16583Y20767D01*
X17000Y20513D01*
X17833Y19247D01*
X18417Y18677D01*
X19250Y18297D01*
X20000Y18170D01*
Y20830D01*
G01Y48133D02*
X15000D01*
Y49717D01*
X15250Y50223D01*
X15583Y50540D01*
X16250Y50667D01*
X16917Y50540D01*
X17333Y50160D01*
X17583Y49717D01*
Y48133D01*
G01Y49717D02*
X20000Y50667D01*
G01Y54500D02*
X15000D01*
X16000Y53740D01*
G01X20000D02*
Y55260D01*
G01Y59600D02*
X15000D01*
X16000Y58840D01*
G01X20000D02*
Y60360D01*
G01Y28133D02*
X15000D01*
Y29717D01*
X15250Y30223D01*
X15583Y30540D01*
X16250Y30667D01*
X16917Y30540D01*
X17333Y30160D01*
X17583Y29717D01*
Y28133D01*
G01Y29717D02*
X20000Y30667D01*
G01X15833Y33297D02*
X15333Y33677D01*
X15083Y34120D01*
X15000Y34627D01*
X15167Y35260D01*
X15583Y35703D01*
X16083Y35830D01*
X16583Y35767D01*
X17000Y35513D01*
X17833Y34247D01*
X18417Y33677D01*
X19250Y33297D01*
X20000Y33170D01*
Y35830D01*
G01Y40360D02*
X15000D01*
X18583Y38017D01*
Y41183D01*
G01X30417Y28293D02*
X30167Y27913D01*
X30000Y27470D01*
Y26963D01*
X30250Y26393D01*
X30667Y25950D01*
X31167Y25633D01*
X32000Y25380D01*
X32750Y25317D01*
X33500Y25443D01*
X34000Y25633D01*
X34500Y26013D01*
X34833Y26457D01*
X35000Y26900D01*
Y27343D01*
X34833Y27787D01*
X34583Y28167D01*
X34250Y28483D01*
G01X34000Y30607D02*
X34583Y30987D01*
X34917Y31493D01*
X35000Y32063D01*
X34917Y32570D01*
X34500Y33077D01*
X34000Y33393D01*
X33500Y33457D01*
X32917Y33330D01*
X32500Y32887D01*
X32333Y32443D01*
Y31873D01*
G01Y32443D02*
X32083Y32823D01*
X31667Y33140D01*
X31167Y33267D01*
X30667Y33140D01*
X30250Y32823D01*
X30000Y32253D01*
X30083Y31683D01*
X30417Y31113D01*
G01X10000Y82807D02*
X6900D01*
Y83573D01*
X7055Y83880D01*
X7262Y84110D01*
X7572Y84302D01*
X7933Y84455D01*
X8450Y84493D01*
X8967Y84455D01*
X9328Y84302D01*
X9638Y84110D01*
X9845Y83880D01*
X10000Y83573D01*
Y82807D01*
G01X7933Y86098D02*
X9380D01*
X9742Y86252D01*
X9948Y86482D01*
X10000Y86750D01*
X9948Y87018D01*
X9742Y87248D01*
X9380Y87402D01*
G01X10000D02*
X7933D01*
G01X10000Y88700D02*
X7933D01*
G01X8502D02*
X8243Y88815D01*
X8037Y89007D01*
X7933Y89275D01*
X8037Y89543D01*
X8243Y89735D01*
X8502Y89850D01*
X10000D01*
G01X8502D02*
X8243Y89965D01*
X8037Y90157D01*
X7933Y90425D01*
X8037Y90693D01*
X8243Y90885D01*
X8553Y91000D01*
X10000D01*
G01X7933Y92950D02*
X10000D01*
G01X7107D02*
X7055Y92873D01*
X6952D01*
X6900Y92950D01*
X6952Y93027D01*
X7055D01*
X7107Y92950D01*
G01X6900Y96050D02*
X10000D01*
G01X7933Y95513D02*
Y96587D01*
G01X10000Y98613D02*
X7933D01*
G01X8347D02*
X8140Y98805D01*
X7985Y98997D01*
X7933Y99265D01*
X7985Y99457D01*
X8140Y99687D01*
G01X7933Y101598D02*
X9380D01*
X9742Y101752D01*
X9948Y101982D01*
X10000Y102250D01*
X9948Y102518D01*
X9742Y102748D01*
X9380Y102902D01*
G01X10000D02*
X7933D01*
G01X10000Y107492D02*
X6900Y108450D01*
X10000Y109408D01*
G01X8915Y109063D02*
Y107837D01*
G01X10000Y111550D02*
X6900D01*
G01X8605Y114075D02*
Y115302D01*
X8243Y115187D01*
X8037Y114995D01*
X7933Y114727D01*
X7985Y114458D01*
X8140Y114228D01*
X8502Y114075D01*
X8812Y113998D01*
X9122D01*
X9432Y114075D01*
X9742Y114267D01*
X9948Y114497D01*
X10000Y114765D01*
X9897Y115033D01*
X9587Y115302D01*
G01X7933Y117175D02*
X10000Y118325D01*
G01X7933D02*
X10000Y117175D01*
G01Y121540D02*
X7933D01*
G01X8295D02*
X8088Y121387D01*
X7985Y121157D01*
X7933Y120888D01*
X8037Y120620D01*
X8243Y120390D01*
X8553Y120237D01*
X8967Y120160D01*
X9380Y120237D01*
X9690Y120390D01*
X9897Y120620D01*
X10000Y120888D01*
X9948Y121157D01*
X9793Y121387D01*
X9587Y121540D01*
G01X10000Y123298D02*
X7933D01*
G01X8450D02*
X8192Y123452D01*
X7985Y123682D01*
X7933Y123988D01*
X7985Y124257D01*
X8192Y124487D01*
X8553Y124602D01*
X10000D01*
G01X6900Y127740D02*
X10000D01*
G01X9535D02*
X9793Y127587D01*
X9948Y127357D01*
X10000Y127088D01*
X9897Y126782D01*
X9638Y126552D01*
X9328Y126398D01*
X8967Y126360D01*
X8605Y126398D01*
X8295Y126552D01*
X8037Y126782D01*
X7933Y127088D01*
X7985Y127357D01*
X8088Y127548D01*
X8295Y127740D01*
G01X10000Y129613D02*
X7933D01*
G01X8347D02*
X8140Y129805D01*
X7985Y129997D01*
X7933Y130265D01*
X7985Y130457D01*
X8140Y130687D01*
G01X7933Y132598D02*
X9380D01*
X9742Y132752D01*
X9948Y132982D01*
X10000Y133250D01*
X9948Y133518D01*
X9742Y133748D01*
X9380Y133902D01*
G01X10000D02*
X7933D01*
G01X10000Y139910D02*
X6900D01*
X9122Y138492D01*
Y140408D01*
G01X9380Y141707D02*
X9742Y141937D01*
X9948Y142243D01*
X10000Y142588D01*
X9948Y142895D01*
X9690Y143202D01*
X9380Y143393D01*
X9070Y143432D01*
X8708Y143355D01*
X8450Y143087D01*
X8347Y142818D01*
Y142473D01*
G01Y142818D02*
X8192Y143048D01*
X7933Y143240D01*
X7623Y143317D01*
X7313Y143240D01*
X7055Y143048D01*
X6900Y142703D01*
X6952Y142358D01*
X7158Y142013D01*
G01X9535Y144807D02*
X9793Y145037D01*
X9948Y145305D01*
X10000Y145650D01*
X9897Y145995D01*
X9690Y146263D01*
X9328Y146455D01*
X8915Y146493D01*
X8502Y146417D01*
X8243Y146225D01*
X8037Y145957D01*
X7985Y145688D01*
X8037Y145420D01*
X8243Y145075D01*
X6900Y145190D01*
Y146225D01*
G01X7158Y149593D02*
X7003Y149363D01*
X6900Y149095D01*
Y148788D01*
X7055Y148443D01*
X7313Y148175D01*
X7623Y147983D01*
X8140Y147830D01*
X8605Y147792D01*
X9070Y147868D01*
X9380Y147983D01*
X9690Y148213D01*
X9897Y148482D01*
X10000Y148750D01*
Y149018D01*
X9897Y149287D01*
X9742Y149517D01*
X9535Y149708D01*
G01X15000Y82883D02*
X11900D01*
Y83803D01*
X12055Y84110D01*
X12417Y84340D01*
X12830Y84417D01*
X13243Y84340D01*
X13553Y84148D01*
X13708Y83803D01*
Y82883D01*
G01X15000Y85907D02*
X11900D01*
Y86673D01*
X12055Y86980D01*
X12262Y87210D01*
X12572Y87402D01*
X12933Y87555D01*
X13450Y87593D01*
X13967Y87555D01*
X14328Y87402D01*
X14638Y87210D01*
X14845Y86980D01*
X15000Y86673D01*
Y85907D01*
G01X12158Y90693D02*
X12003Y90463D01*
X11900Y90195D01*
Y89888D01*
X12055Y89543D01*
X12313Y89275D01*
X12623Y89083D01*
X13140Y88930D01*
X13605Y88892D01*
X14070Y88968D01*
X14380Y89083D01*
X14690Y89313D01*
X14897Y89582D01*
X15000Y89850D01*
Y90118D01*
X14897Y90387D01*
X14742Y90617D01*
X14535Y90808D01*
G01X15000Y93717D02*
Y92183D01*
X11900D01*
Y93717D01*
G01X13398Y93103D02*
Y92183D01*
G01X12417Y98422D02*
X12107Y98652D01*
X11952Y98920D01*
X11900Y99227D01*
X12003Y99610D01*
X12262Y99878D01*
X12572Y99955D01*
X12882Y99917D01*
X13140Y99763D01*
X13657Y98997D01*
X14018Y98652D01*
X14535Y98422D01*
X15000Y98345D01*
Y99955D01*
G01X11900Y102250D02*
X12003Y101943D01*
X12262Y101713D01*
X12572Y101560D01*
X12985Y101445D01*
X13450Y101407D01*
X13915Y101445D01*
X14328Y101560D01*
X14638Y101713D01*
X14897Y101943D01*
X15000Y102250D01*
X14897Y102557D01*
X14638Y102787D01*
X14328Y102940D01*
X13915Y103055D01*
X13450Y103093D01*
X12985Y103055D01*
X12572Y102940D01*
X12262Y102787D01*
X12003Y102557D01*
X11900Y102250D01*
G01X12417Y104622D02*
X12107Y104852D01*
X11952Y105120D01*
X11900Y105427D01*
X12003Y105810D01*
X12262Y106078D01*
X12572Y106155D01*
X12882Y106117D01*
X13140Y105963D01*
X13657Y105197D01*
X14018Y104852D01*
X14535Y104622D01*
X15000Y104545D01*
Y106155D01*
G01Y108450D02*
X11900D01*
X12520Y107990D01*
G01X15000D02*
Y108910D01*
G01X13967Y111052D02*
Y112048D01*
G01X12417Y113922D02*
X12107Y114152D01*
X11952Y114420D01*
X11900Y114727D01*
X12003Y115110D01*
X12262Y115378D01*
X12572Y115455D01*
X12882Y115417D01*
X13140Y115263D01*
X13657Y114497D01*
X14018Y114152D01*
X14535Y113922D01*
X15000Y113845D01*
Y115455D01*
G01X11900Y117750D02*
X12003Y117443D01*
X12262Y117213D01*
X12572Y117060D01*
X12985Y116945D01*
X13450Y116907D01*
X13915Y116945D01*
X14328Y117060D01*
X14638Y117213D01*
X14897Y117443D01*
X15000Y117750D01*
X14897Y118057D01*
X14638Y118287D01*
X14328Y118440D01*
X13915Y118555D01*
X13450Y118593D01*
X12985Y118555D01*
X12572Y118440D01*
X12262Y118287D01*
X12003Y118057D01*
X11900Y117750D01*
G01X12417Y120122D02*
X12107Y120352D01*
X11952Y120620D01*
X11900Y120927D01*
X12003Y121310D01*
X12262Y121578D01*
X12572Y121655D01*
X12882Y121617D01*
X13140Y121463D01*
X13657Y120697D01*
X14018Y120352D01*
X14535Y120122D01*
X15000Y120045D01*
Y121655D01*
G01X12417Y123222D02*
X12107Y123452D01*
X11952Y123720D01*
X11900Y124027D01*
X12003Y124410D01*
X12262Y124678D01*
X12572Y124755D01*
X12882Y124717D01*
X13140Y124563D01*
X13657Y123797D01*
X14018Y123452D01*
X14535Y123222D01*
X15000Y123145D01*
Y124755D01*
G01X18133Y145000D02*
Y150000D01*
X19717D01*
X20223Y149750D01*
X20540Y149417D01*
X20667Y148750D01*
X20540Y148083D01*
X20160Y147667D01*
X19717Y147417D01*
X18133D01*
G01X19717D02*
X20667Y145000D01*
G01X23297Y149167D02*
X23677Y149667D01*
X24120Y149917D01*
X24627Y150000D01*
X25260Y149833D01*
X25703Y149417D01*
X25830Y148917D01*
X25767Y148417D01*
X25513Y148000D01*
X24247Y147167D01*
X23677Y146583D01*
X23297Y145750D01*
X23170Y145000D01*
X25830D01*
G01X50000Y15633D02*
X45000D01*
Y17217D01*
X45250Y17723D01*
X45583Y18040D01*
X46250Y18167D01*
X46917Y18040D01*
X47333Y17660D01*
X47583Y17217D01*
Y15633D01*
G01Y17217D02*
X50000Y18167D01*
G01Y22000D02*
X45000D01*
X46000Y21240D01*
G01X50000D02*
Y22760D01*
G01X45833Y25897D02*
X45333Y26277D01*
X45083Y26720D01*
X45000Y27227D01*
X45167Y27860D01*
X45583Y28303D01*
X46083Y28430D01*
X46583Y28367D01*
X47000Y28113D01*
X47833Y26847D01*
X48417Y26277D01*
X49250Y25897D01*
X50000Y25770D01*
Y28430D01*
G01X47500Y38133D02*
X42500D01*
Y39717D01*
X42750Y40223D01*
X43083Y40540D01*
X43750Y40667D01*
X44417Y40540D01*
X44833Y40160D01*
X45083Y39717D01*
Y38133D01*
G01Y39717D02*
X47500Y40667D01*
G01X43333Y43297D02*
X42833Y43677D01*
X42583Y44120D01*
X42500Y44627D01*
X42667Y45260D01*
X43083Y45703D01*
X43583Y45830D01*
X44083Y45767D01*
X44500Y45513D01*
X45333Y44247D01*
X45917Y43677D01*
X46750Y43297D01*
X47500Y43170D01*
Y45830D01*
G01X46500Y48207D02*
X47083Y48587D01*
X47417Y49093D01*
X47500Y49663D01*
X47417Y50170D01*
X47000Y50677D01*
X46500Y50993D01*
X46000Y51057D01*
X45417Y50930D01*
X45000Y50487D01*
X44833Y50043D01*
Y49473D01*
G01Y50043D02*
X44583Y50423D01*
X44167Y50740D01*
X43667Y50867D01*
X43167Y50740D01*
X42750Y50423D01*
X42500Y49853D01*
X42583Y49283D01*
X42917Y48713D01*
G01X50633Y30000D02*
Y35000D01*
X52217D01*
X52723Y34750D01*
X53040Y34417D01*
X53167Y33750D01*
X53040Y33083D01*
X52660Y32667D01*
X52217Y32417D01*
X50633D01*
G01X52217D02*
X53167Y30000D01*
G01X57000D02*
Y35000D01*
X56240Y34000D01*
G01Y30000D02*
X57760D01*
G01X60707Y31000D02*
X61087Y30417D01*
X61593Y30083D01*
X62163Y30000D01*
X62670Y30083D01*
X63177Y30500D01*
X63493Y31000D01*
X63557Y31500D01*
X63430Y32083D01*
X62987Y32500D01*
X62543Y32667D01*
X61973D01*
G01X62543D02*
X62923Y32917D01*
X63240Y33333D01*
X63367Y33833D01*
X63240Y34333D01*
X62923Y34750D01*
X62353Y35000D01*
X61783Y34917D01*
X61213Y34583D01*
G01X34400Y72500D02*
X33893Y72583D01*
X33450Y72917D01*
X33070Y73417D01*
X32817Y74000D01*
X32690Y74667D01*
Y75333D01*
X32817Y76000D01*
X33070Y76583D01*
X33450Y77083D01*
X33893Y77417D01*
X34400Y77500D01*
X34907Y77417D01*
X35350Y77083D01*
X35730Y76583D01*
X35983Y76000D01*
X36110Y75333D01*
Y74667D01*
X35983Y74000D01*
X35730Y73417D01*
X35350Y72917D01*
X34907Y72583D01*
X34400Y72500D01*
G01X34907Y73833D02*
X35667Y72500D01*
G01X38297Y76667D02*
X38677Y77167D01*
X39120Y77417D01*
X39627Y77500D01*
X40260Y77333D01*
X40703Y76917D01*
X40830Y76417D01*
X40767Y75917D01*
X40513Y75500D01*
X39247Y74667D01*
X38677Y74083D01*
X38297Y73250D01*
X38170Y72500D01*
X40830D01*
G01X44600D02*
Y77500D01*
X43840Y76500D01*
G01Y72500D02*
X45360D01*
G01X60000Y130633D02*
X55000D01*
Y132217D01*
X55250Y132723D01*
X55583Y133040D01*
X56250Y133167D01*
X56917Y133040D01*
X57333Y132660D01*
X57583Y132217D01*
Y130633D01*
G01Y132217D02*
X60000Y133167D01*
G01Y137000D02*
X55000D01*
X56000Y136240D01*
G01X60000D02*
Y137760D01*
G01X40000Y130633D02*
X35000D01*
Y132217D01*
X35250Y132723D01*
X35583Y133040D01*
X36250Y133167D01*
X36917Y133040D01*
X37333Y132660D01*
X37583Y132217D01*
Y130633D01*
G01Y132217D02*
X40000Y133167D01*
G01X39000Y135607D02*
X39583Y135987D01*
X39917Y136493D01*
X40000Y137063D01*
X39917Y137570D01*
X39500Y138077D01*
X39000Y138393D01*
X38500Y138457D01*
X37917Y138330D01*
X37500Y137887D01*
X37333Y137443D01*
Y136873D01*
G01Y137443D02*
X37083Y137823D01*
X36667Y138140D01*
X36167Y138267D01*
X35667Y138140D01*
X35250Y137823D01*
X35000Y137253D01*
X35083Y136683D01*
X35417Y136113D01*
G01X80000Y15633D02*
X75000D01*
Y17217D01*
X75250Y17723D01*
X75583Y18040D01*
X76250Y18167D01*
X76917Y18040D01*
X77333Y17660D01*
X77583Y17217D01*
Y15633D01*
G01Y17217D02*
X80000Y18167D01*
G01Y22000D02*
X75000D01*
X76000Y21240D01*
G01X80000D02*
Y22760D01*
G01X79417Y26023D02*
X79833Y26467D01*
X80000Y26973D01*
X79833Y27480D01*
X79333Y27923D01*
X78583Y28240D01*
X77833Y28367D01*
X76917D01*
X76167Y28240D01*
X75500Y27923D01*
X75167Y27543D01*
X75000Y27100D01*
X75167Y26593D01*
X75500Y26213D01*
X76000Y25960D01*
X76667Y25833D01*
X77250Y25960D01*
X77833Y26277D01*
X78167Y26657D01*
X78250Y27100D01*
X78083Y27607D01*
X77667Y27987D01*
X76917Y28367D01*
G01X70000Y43133D02*
X65000D01*
Y44717D01*
X65250Y45223D01*
X65583Y45540D01*
X66250Y45667D01*
X66917Y45540D01*
X67333Y45160D01*
X67583Y44717D01*
Y43133D01*
G01Y44717D02*
X70000Y45667D01*
G01X67917Y48297D02*
X67333Y48740D01*
X67000Y49120D01*
X66833Y49627D01*
X67000Y50070D01*
X67333Y50387D01*
X67833Y50640D01*
X68417Y50703D01*
X68917Y50640D01*
X69417Y50387D01*
X69833Y50007D01*
X70000Y49563D01*
X69833Y49057D01*
X69333Y48613D01*
X68583Y48360D01*
X67750Y48297D01*
X66667Y48423D01*
X66083Y48613D01*
X65500Y48930D01*
X65083Y49373D01*
X65000Y49817D01*
X65167Y50260D01*
X65583Y50577D01*
G01X65633Y70000D02*
Y75000D01*
X67217D01*
X67723Y74750D01*
X68040Y74417D01*
X68167Y73750D01*
X68040Y73083D01*
X67660Y72667D01*
X67217Y72417D01*
X65633D01*
G01X67217D02*
X68167Y70000D01*
G01X70923Y70583D02*
X71367Y70167D01*
X71873Y70000D01*
X72380Y70167D01*
X72823Y70667D01*
X73140Y71417D01*
X73267Y72167D01*
Y73083D01*
X73140Y73833D01*
X72823Y74500D01*
X72443Y74833D01*
X72000Y75000D01*
X71493Y74833D01*
X71113Y74500D01*
X70860Y74000D01*
X70733Y73333D01*
X70860Y72750D01*
X71177Y72167D01*
X71557Y71833D01*
X72000Y71750D01*
X72507Y71917D01*
X72887Y72333D01*
X73267Y73083D01*
G01X80633Y70000D02*
Y75000D01*
X82217D01*
X82723Y74750D01*
X83040Y74417D01*
X83167Y73750D01*
X83040Y73083D01*
X82660Y72667D01*
X82217Y72417D01*
X80633D01*
G01X82217D02*
X83167Y70000D01*
G01X87000D02*
Y75000D01*
X86240Y74000D01*
G01Y70000D02*
X87760D01*
G01X90897Y72083D02*
X91340Y72667D01*
X91720Y73000D01*
X92227Y73167D01*
X92670Y73000D01*
X92987Y72667D01*
X93240Y72167D01*
X93303Y71583D01*
X93240Y71083D01*
X92987Y70583D01*
X92607Y70167D01*
X92163Y70000D01*
X91657Y70167D01*
X91213Y70667D01*
X90960Y71417D01*
X90897Y72250D01*
X91023Y73333D01*
X91213Y73917D01*
X91530Y74500D01*
X91973Y74917D01*
X92417Y75000D01*
X92860Y74833D01*
X93177Y74417D01*
G01X82500Y101900D02*
X82417Y101393D01*
X82083Y100950D01*
X81583Y100570D01*
X81000Y100317D01*
X80333Y100190D01*
X79667D01*
X79000Y100317D01*
X78417Y100570D01*
X77917Y100950D01*
X77583Y101393D01*
X77500Y101900D01*
X77583Y102407D01*
X77917Y102850D01*
X78417Y103230D01*
X79000Y103483D01*
X79667Y103610D01*
X80333D01*
X81000Y103483D01*
X81583Y103230D01*
X82083Y102850D01*
X82417Y102407D01*
X82500Y101900D01*
G01X81167Y102407D02*
X82500Y103167D01*
G01Y107000D02*
X77500D01*
X78500Y106240D01*
G01X82500D02*
Y107760D01*
G01Y112100D02*
X82417Y112543D01*
X82167Y113050D01*
X81750Y113367D01*
X81167Y113493D01*
X80583Y113367D01*
X80083Y112987D01*
X79833Y112417D01*
Y111783D01*
X79667Y111403D01*
X79250Y111087D01*
X78667Y110960D01*
X78083Y111150D01*
X77667Y111593D01*
X77500Y112100D01*
X77667Y112607D01*
X78083Y113050D01*
X78667Y113240D01*
X79250Y113113D01*
X79667Y112797D01*
X79833Y112417D01*
Y111783D01*
X80083Y111213D01*
X80583Y110833D01*
X81167Y110707D01*
X81750Y110833D01*
X82167Y111150D01*
X82417Y111657D01*
X82500Y112100D01*
G01X70000Y86900D02*
X69917Y86393D01*
X69583Y85950D01*
X69083Y85570D01*
X68500Y85317D01*
X67833Y85190D01*
X67167D01*
X66500Y85317D01*
X65917Y85570D01*
X65417Y85950D01*
X65083Y86393D01*
X65000Y86900D01*
X65083Y87407D01*
X65417Y87850D01*
X65917Y88230D01*
X66500Y88483D01*
X67167Y88610D01*
X67833D01*
X68500Y88483D01*
X69083Y88230D01*
X69583Y87850D01*
X69917Y87407D01*
X70000Y86900D01*
G01X68667Y87407D02*
X70000Y88167D01*
G01X65833Y90797D02*
X65333Y91177D01*
X65083Y91620D01*
X65000Y92127D01*
X65167Y92760D01*
X65583Y93203D01*
X66083Y93330D01*
X66583Y93267D01*
X67000Y93013D01*
X67833Y91747D01*
X68417Y91177D01*
X69250Y90797D01*
X70000Y90670D01*
Y93330D01*
G01X65833Y95897D02*
X65333Y96277D01*
X65083Y96720D01*
X65000Y97227D01*
X65167Y97860D01*
X65583Y98303D01*
X66083Y98430D01*
X66583Y98367D01*
X67000Y98113D01*
X67833Y96847D01*
X68417Y96277D01*
X69250Y95897D01*
X70000Y95770D01*
Y98430D01*
G01X90633Y100000D02*
Y105000D01*
X92217D01*
X92723Y104750D01*
X93040Y104417D01*
X93167Y103750D01*
X93040Y103083D01*
X92660Y102667D01*
X92217Y102417D01*
X90633D01*
G01X92217D02*
X93167Y100000D01*
G01X95797Y104167D02*
X96177Y104667D01*
X96620Y104917D01*
X97127Y105000D01*
X97760Y104833D01*
X98203Y104417D01*
X98330Y103917D01*
X98267Y103417D01*
X98013Y103000D01*
X96747Y102167D01*
X96177Y101583D01*
X95797Y100750D01*
X95670Y100000D01*
X98330D01*
G01X102100D02*
Y105000D01*
X101340Y104000D01*
G01Y100000D02*
X102860D01*
G01X73133Y85000D02*
Y90000D01*
X74717D01*
X75223Y89750D01*
X75540Y89417D01*
X75667Y88750D01*
X75540Y88083D01*
X75160Y87667D01*
X74717Y87417D01*
X73133D01*
G01X74717D02*
X75667Y85000D01*
G01X78297Y89167D02*
X78677Y89667D01*
X79120Y89917D01*
X79627Y90000D01*
X80260Y89833D01*
X80703Y89417D01*
X80830Y88917D01*
X80767Y88417D01*
X80513Y88000D01*
X79247Y87167D01*
X78677Y86583D01*
X78297Y85750D01*
X78170Y85000D01*
X80830D01*
G01X83397Y89167D02*
X83777Y89667D01*
X84220Y89917D01*
X84727Y90000D01*
X85360Y89833D01*
X85803Y89417D01*
X85930Y88917D01*
X85867Y88417D01*
X85613Y88000D01*
X84347Y87167D01*
X83777Y86583D01*
X83397Y85750D01*
X83270Y85000D01*
X85930D01*
G01X68133Y135000D02*
Y140000D01*
X69717D01*
X70223Y139750D01*
X70540Y139417D01*
X70667Y138750D01*
X70540Y138083D01*
X70160Y137667D01*
X69717Y137417D01*
X68133D01*
G01X69717D02*
X70667Y135000D01*
G01X74500D02*
Y140000D01*
X73740Y139000D01*
G01Y135000D02*
X75260D01*
G01X78207Y135750D02*
X78587Y135333D01*
X79030Y135083D01*
X79600Y135000D01*
X80170Y135167D01*
X80613Y135500D01*
X80930Y136083D01*
X80993Y136750D01*
X80867Y137417D01*
X80550Y137833D01*
X80107Y138167D01*
X79663Y138250D01*
X79220Y138167D01*
X78650Y137833D01*
X78840Y140000D01*
X80550D01*
G01X90633Y115000D02*
Y120000D01*
X92217D01*
X92723Y119750D01*
X93040Y119417D01*
X93167Y118750D01*
X93040Y118083D01*
X92660Y117667D01*
X92217Y117417D01*
X90633D01*
G01X92217D02*
X93167Y115000D01*
G01X95797Y119167D02*
X96177Y119667D01*
X96620Y119917D01*
X97127Y120000D01*
X97760Y119833D01*
X98203Y119417D01*
X98330Y118917D01*
X98267Y118417D01*
X98013Y118000D01*
X96747Y117167D01*
X96177Y116583D01*
X95797Y115750D01*
X95670Y115000D01*
X98330D01*
G01X102100Y120000D02*
X101593Y119833D01*
X101213Y119417D01*
X100960Y118917D01*
X100770Y118250D01*
X100707Y117500D01*
X100770Y116750D01*
X100960Y116083D01*
X101213Y115583D01*
X101593Y115167D01*
X102100Y115000D01*
X102607Y115167D01*
X102987Y115583D01*
X103240Y116083D01*
X103430Y116750D01*
X103493Y117500D01*
X103430Y118250D01*
X103240Y118917D01*
X102987Y119417D01*
X102607Y119833D01*
X102100Y120000D01*
G01X95633Y31000D02*
X95950Y30500D01*
X96330Y30167D01*
X96773Y30000D01*
X97280Y30167D01*
X97660Y30500D01*
X98040Y31000D01*
X98167Y31667D01*
Y35000D01*
G01X100607Y30750D02*
X100987Y30333D01*
X101430Y30083D01*
X102000Y30000D01*
X102570Y30167D01*
X103013Y30500D01*
X103330Y31083D01*
X103393Y31750D01*
X103267Y32417D01*
X102950Y32833D01*
X102507Y33167D01*
X102063Y33250D01*
X101620Y33167D01*
X101050Y32833D01*
X101240Y35000D01*
X102950D01*
G01X95417Y43293D02*
X95167Y42913D01*
X95000Y42470D01*
Y41963D01*
X95250Y41393D01*
X95667Y40950D01*
X96167Y40633D01*
X97000Y40380D01*
X97750Y40317D01*
X98500Y40443D01*
X99000Y40633D01*
X99500Y41013D01*
X99833Y41457D01*
X100000Y41900D01*
Y42343D01*
X99833Y42787D01*
X99583Y43167D01*
X99250Y43483D01*
G01X100000Y47760D02*
X95000D01*
X98583Y45417D01*
Y48583D01*
G01X98133Y70000D02*
Y75000D01*
X99717D01*
X100223Y74750D01*
X100540Y74417D01*
X100667Y73750D01*
X100540Y73083D01*
X100160Y72667D01*
X99717Y72417D01*
X98133D01*
G01X99717D02*
X100667Y70000D01*
G01X104500D02*
Y75000D01*
X103740Y74000D01*
G01Y70000D02*
X105260D01*
G01X109473D02*
X109600Y71083D01*
X109790Y72000D01*
X110043Y72833D01*
X110360Y73750D01*
X110867Y75000D01*
X108333D01*
G01X93133Y85000D02*
Y90000D01*
X94717D01*
X95223Y89750D01*
X95540Y89417D01*
X95667Y88750D01*
X95540Y88083D01*
X95160Y87667D01*
X94717Y87417D01*
X93133D01*
G01X94717D02*
X95667Y85000D01*
G01X99500D02*
Y90000D01*
X98740Y89000D01*
G01Y85000D02*
X100260D01*
G01X105360D02*
Y90000D01*
X103017Y86417D01*
X106183D01*
G01X114400Y122500D02*
X113893Y122583D01*
X113450Y122917D01*
X113070Y123417D01*
X112817Y124000D01*
X112690Y124667D01*
Y125333D01*
X112817Y126000D01*
X113070Y126583D01*
X113450Y127083D01*
X113893Y127417D01*
X114400Y127500D01*
X114907Y127417D01*
X115350Y127083D01*
X115730Y126583D01*
X115983Y126000D01*
X116110Y125333D01*
Y124667D01*
X115983Y124000D01*
X115730Y123417D01*
X115350Y122917D01*
X114907Y122583D01*
X114400Y122500D01*
G01X114907Y123833D02*
X115667Y122500D01*
G01X118297Y126667D02*
X118677Y127167D01*
X119120Y127417D01*
X119627Y127500D01*
X120260Y127333D01*
X120703Y126917D01*
X120830Y126417D01*
X120767Y125917D01*
X120513Y125500D01*
X119247Y124667D01*
X118677Y124083D01*
X118297Y123250D01*
X118170Y122500D01*
X120830D01*
G01X123207Y123500D02*
X123587Y122917D01*
X124093Y122583D01*
X124663Y122500D01*
X125170Y122583D01*
X125677Y123000D01*
X125993Y123500D01*
X126057Y124000D01*
X125930Y124583D01*
X125487Y125000D01*
X125043Y125167D01*
X124473D01*
G01X125043D02*
X125423Y125417D01*
X125740Y125833D01*
X125867Y126333D01*
X125740Y126833D01*
X125423Y127250D01*
X124853Y127500D01*
X124283Y127417D01*
X123713Y127083D01*
G01X93133Y130000D02*
Y135000D01*
X94717D01*
X95223Y134750D01*
X95540Y134417D01*
X95667Y133750D01*
X95540Y133083D01*
X95160Y132667D01*
X94717Y132417D01*
X93133D01*
G01X94717D02*
X95667Y130000D01*
G01X99373D02*
X99500Y131083D01*
X99690Y132000D01*
X99943Y132833D01*
X100260Y133750D01*
X100767Y135000D01*
X98233D01*
G01X116900Y142500D02*
X116393Y142583D01*
X115950Y142917D01*
X115570Y143417D01*
X115317Y144000D01*
X115190Y144667D01*
Y145333D01*
X115317Y146000D01*
X115570Y146583D01*
X115950Y147083D01*
X116393Y147417D01*
X116900Y147500D01*
X117407Y147417D01*
X117850Y147083D01*
X118230Y146583D01*
X118483Y146000D01*
X118610Y145333D01*
Y144667D01*
X118483Y144000D01*
X118230Y143417D01*
X117850Y142917D01*
X117407Y142583D01*
X116900Y142500D01*
G01X117407Y143833D02*
X118167Y142500D01*
G01X122000D02*
Y147500D01*
X121240Y146500D01*
G01Y142500D02*
X122760D01*
G01X126023Y143083D02*
X126467Y142667D01*
X126973Y142500D01*
X127480Y142667D01*
X127923Y143167D01*
X128240Y143917D01*
X128367Y144667D01*
Y145583D01*
X128240Y146333D01*
X127923Y147000D01*
X127543Y147333D01*
X127100Y147500D01*
X126593Y147333D01*
X126213Y147000D01*
X125960Y146500D01*
X125833Y145833D01*
X125960Y145250D01*
X126277Y144667D01*
X126657Y144333D01*
X127100Y144250D01*
X127607Y144417D01*
X127987Y144833D01*
X128367Y145583D01*
G01X146500Y28133D02*
X147000Y28450D01*
X147333Y28830D01*
X147500Y29273D01*
X147333Y29780D01*
X147000Y30160D01*
X146500Y30540D01*
X145833Y30667D01*
X142500D01*
G01X146500Y33107D02*
X147083Y33487D01*
X147417Y33993D01*
X147500Y34563D01*
X147417Y35070D01*
X147000Y35577D01*
X146500Y35893D01*
X146000Y35957D01*
X145417Y35830D01*
X145000Y35387D01*
X144833Y34943D01*
Y34373D01*
G01Y34943D02*
X144583Y35323D01*
X144167Y35640D01*
X143667Y35767D01*
X143167Y35640D01*
X142750Y35323D01*
X142500Y34753D01*
X142583Y34183D01*
X142917Y33613D01*
G01X150000Y75633D02*
X145000D01*
Y77217D01*
X145250Y77723D01*
X145583Y78040D01*
X146250Y78167D01*
X146917Y78040D01*
X147333Y77660D01*
X147583Y77217D01*
Y75633D01*
G01Y77217D02*
X150000Y78167D01*
G01Y82000D02*
X149917Y82443D01*
X149667Y82950D01*
X149250Y83267D01*
X148667Y83393D01*
X148083Y83267D01*
X147583Y82887D01*
X147333Y82317D01*
Y81683D01*
X147167Y81303D01*
X146750Y80987D01*
X146167Y80860D01*
X145583Y81050D01*
X145167Y81493D01*
X145000Y82000D01*
X145167Y82507D01*
X145583Y82950D01*
X146167Y83140D01*
X146750Y83013D01*
X147167Y82697D01*
X147333Y82317D01*
Y81683D01*
X147583Y81113D01*
X148083Y80733D01*
X148667Y80607D01*
X149250Y80733D01*
X149667Y81050D01*
X149917Y81557D01*
X150000Y82000D01*
G01X122917Y68293D02*
X122667Y67913D01*
X122500Y67470D01*
Y66963D01*
X122750Y66393D01*
X123167Y65950D01*
X123667Y65633D01*
X124500Y65380D01*
X125250Y65317D01*
X126000Y65443D01*
X126500Y65633D01*
X127000Y66013D01*
X127333Y66457D01*
X127500Y66900D01*
Y67343D01*
X127333Y67787D01*
X127083Y68167D01*
X126750Y68483D01*
G01X127500Y72000D02*
X122500D01*
X123500Y71240D01*
G01X127500D02*
Y72760D01*
G01X133133Y105000D02*
Y110000D01*
X134717D01*
X135223Y109750D01*
X135540Y109417D01*
X135667Y108750D01*
X135540Y108083D01*
X135160Y107667D01*
X134717Y107417D01*
X133133D01*
G01X134717D02*
X135667Y105000D01*
G01X139500D02*
Y110000D01*
X138740Y109000D01*
G01Y105000D02*
X140260D01*
G01X144600D02*
X145043Y105083D01*
X145550Y105333D01*
X145867Y105750D01*
X145993Y106333D01*
X145867Y106917D01*
X145487Y107417D01*
X144917Y107667D01*
X144283D01*
X143903Y107833D01*
X143587Y108250D01*
X143460Y108833D01*
X143650Y109417D01*
X144093Y109833D01*
X144600Y110000D01*
X145107Y109833D01*
X145550Y109417D01*
X145740Y108833D01*
X145613Y108250D01*
X145297Y107833D01*
X144917Y107667D01*
X144283D01*
X143713Y107417D01*
X143333Y106917D01*
X143207Y106333D01*
X143333Y105750D01*
X143650Y105333D01*
X144157Y105083D01*
X144600Y105000D01*
G01X151500Y125633D02*
X152000Y125950D01*
X152333Y126330D01*
X152500Y126773D01*
X152333Y127280D01*
X152000Y127660D01*
X151500Y128040D01*
X150833Y128167D01*
X147500D01*
G01X148333Y130797D02*
X147833Y131177D01*
X147583Y131620D01*
X147500Y132127D01*
X147667Y132760D01*
X148083Y133203D01*
X148583Y133330D01*
X149083Y133267D01*
X149500Y133013D01*
X150333Y131747D01*
X150917Y131177D01*
X151750Y130797D01*
X152500Y130670D01*
Y133330D01*
G54D11*
G01X33200Y58100D02*
Y70100D01*
X38800D01*
Y58100D01*
X33200D01*
G01X53200Y78100D02*
Y90100D01*
X58800D01*
Y78100D01*
X53200D01*
G01X71800Y111900D02*
Y99900D01*
X66200D01*
Y111900D01*
X71800D01*
G01X113100Y114300D02*
X125100D01*
Y108700D01*
X113100D01*
Y114300D01*
G01X116800Y141900D02*
Y129900D01*
X111200D01*
Y141900D01*
X116800D01*
G54D12*
G01X13750Y22200D02*
Y6200D01*
G01D02*
X6250D01*
G01D02*
Y22200D01*
G01X13750Y62200D02*
Y46200D01*
G01D02*
X6250D01*
G01D02*
Y62200D01*
G01X13750Y42200D02*
Y26200D01*
G01D02*
X6250D01*
G01D02*
Y42200D01*
G01D02*
X13750D01*
G01X6250Y22200D02*
X13750D01*
G01X28750Y39700D02*
Y23700D01*
G01D02*
X21250D01*
G01D02*
Y39700D01*
G01D02*
X28750D01*
G01X6250Y62200D02*
X13750D01*
G01X23750Y142200D02*
Y126200D01*
G01D02*
X16250D01*
G01D02*
Y142200D01*
G01X33750Y126200D02*
X26250D01*
G01D02*
Y142200D01*
G01X16250D02*
X23750D01*
G01X26250D02*
X33750D01*
G01X43750Y32200D02*
Y16200D01*
G01D02*
X36250D01*
G01D02*
Y32200D01*
G01X56250Y12800D02*
Y28800D01*
G01X63750Y12800D02*
X56250D01*
G01X36250Y32200D02*
X43750D01*
G01X41250Y52200D02*
Y36200D01*
G01D02*
X33750D01*
G01D02*
Y52200D01*
G01X56250Y28800D02*
X63750D01*
G01Y38700D02*
X56250D01*
G01D02*
Y54700D01*
G01X33750Y52200D02*
X41250D01*
G01X72200Y61250D02*
X56200D01*
G01D02*
Y68750D01*
G01D02*
X72200D01*
G01X56250Y54700D02*
X63750D01*
G01X53750Y142200D02*
Y126200D01*
G01D02*
X46250D01*
G01D02*
Y142200D01*
G01X33750D02*
Y126200D01*
G01X46250Y142200D02*
X53750D01*
G01X84550Y27500D02*
Y12500D01*
G01D02*
X119050D01*
G01X63750Y28800D02*
Y12800D01*
G01X73750Y32200D02*
Y16200D01*
G01D02*
X66250D01*
G01D02*
Y32200D01*
G01X119050Y27500D02*
X84550D01*
G01X66250Y32200D02*
X73750D01*
G01X63750Y54700D02*
Y38700D01*
G01X93750Y36200D02*
X86250D01*
G01D02*
Y52200D01*
G01X72200Y68750D02*
Y61250D01*
G01X92200D02*
X76200D01*
G01D02*
Y68750D01*
G01D02*
X92200D01*
G01X86300Y83750D02*
Y76250D01*
G01D02*
X70300D01*
G01D02*
Y83750D01*
G01X86250Y52200D02*
X93750D01*
G01X104700Y106250D02*
X88700D01*
G01D02*
Y113750D01*
G01X87800Y98750D02*
X103800D01*
G01Y91250D02*
X87800D01*
G01D02*
Y98750D01*
G01X70300Y83750D02*
X86300D01*
G01X73750Y132200D02*
Y116200D01*
G01D02*
X66250D01*
G01D02*
Y132200D01*
G01D02*
X73750D01*
G01X85300Y128750D02*
X101300D01*
G01Y121250D02*
X85300D01*
G01D02*
Y128750D01*
G01X88700Y113750D02*
X104700D01*
G01X119050Y12500D02*
Y27500D01*
G01X93750Y52200D02*
Y36200D01*
G01X92200Y68750D02*
Y61250D01*
G01X112200D02*
X96200D01*
G01D02*
Y68750D01*
G01D02*
X112200D01*
G01D02*
Y61250D01*
G01X106300Y83750D02*
Y76250D01*
G01D02*
X90300D01*
G01D02*
Y83750D01*
G01X121250Y61200D02*
X113750D01*
G01D02*
Y77200D01*
G01D02*
X121250D01*
G01X104700Y113750D02*
Y106250D01*
G01X103800Y98750D02*
Y91250D01*
G01X90300Y83750D02*
X106300D01*
G01X101300Y128750D02*
Y121250D01*
G01X125000Y46550D02*
Y12050D01*
G01D02*
X140000D01*
G01D02*
Y46550D01*
G01D02*
X125000D01*
G01X143800Y83750D02*
Y76250D01*
G01D02*
X127800D01*
G01D02*
Y83750D01*
G01X121250Y77200D02*
Y61200D01*
G01X127800Y83750D02*
X143800D01*
G01X136250Y87800D02*
Y103800D01*
G01D02*
X143750D01*
G01D02*
Y87800D01*
G01D02*
X136250D01*
G01X130000Y113450D02*
X145000D01*
G01D02*
Y147950D01*
G01X130000D02*
Y113450D01*
G01X145000Y147950D02*
X130000D01*
M02*
